<svg id="SvgjsSvg1006" width="704.9999694824219" height="824.0800323486328" xmlns="http://www.w3.org/2000/svg" version="1.1" xmlns:xlink="http://www.w3.org/1999/xlink" xmlns:svgjs="http://svgjs.com/svgjs"><defs id="SvgjsDefs1007"><marker id="SvgjsMarker1046" markerWidth="16" markerHeight="12" refX="16" refY="6" viewBox="0 0 16 12" orient="auto" markerUnits="userSpaceOnUse" stroke-dasharray="0,0"><path id="SvgjsPath1047" d="M0,2 L14,6 L0,11 L0,2" fill="#323232" stroke="#323232" stroke-width="2"></path></marker><marker id="SvgjsMarker1050" markerWidth="16" markerHeight="12" refX="16" refY="6" viewBox="0 0 16 12" orient="auto" markerUnits="userSpaceOnUse" stroke-dasharray="0,0"><path id="SvgjsPath1051" d="M0,2 L14,6 L0,11 L0,2" fill="#323232" stroke="#323232" stroke-width="2"></path></marker><marker id="SvgjsMarker1054" markerWidth="16" markerHeight="12" refX="16" refY="6" viewBox="0 0 16 12" orient="auto" markerUnits="userSpaceOnUse" stroke-dasharray="0,0"><path id="SvgjsPath1055" d="M0,2 L14,6 L0,11 L0,2" fill="#323232" stroke="#323232" stroke-width="2"></path></marker><marker id="SvgjsMarker1058" markerWidth="16" markerHeight="12" refX="16" refY="6" viewBox="0 0 16 12" orient="auto" markerUnits="userSpaceOnUse" stroke-dasharray="0,0"><path id="SvgjsPath1059" d="M0,2 L14,6 L0,11 L0,2" fill="#323232" stroke="#323232" stroke-width="2"></path></marker><marker id="SvgjsMarker1062" markerWidth="16" markerHeight="12" refX="16" refY="6" viewBox="0 0 16 12" orient="auto" markerUnits="userSpaceOnUse" stroke-dasharray="0,0"><path id="SvgjsPath1063" d="M0,2 L14,6 L0,11 L0,2" fill="#323232" stroke="#323232" stroke-width="2"></path></marker><marker id="SvgjsMarker1066" markerWidth="16" markerHeight="12" refX="16" refY="6" viewBox="0 0 16 12" orient="auto" markerUnits="userSpaceOnUse" stroke-dasharray="0,0"><path id="SvgjsPath1067" d="M0,2 L14,6 L0,11 L0,2" fill="#323232" stroke="#323232" stroke-width="2"></path></marker><marker id="SvgjsMarker1070" markerWidth="16" markerHeight="12" refX="16" refY="6" viewBox="0 0 16 12" orient="auto" markerUnits="userSpaceOnUse" stroke-dasharray="0,0"><path id="SvgjsPath1071" d="M0,2 L14,6 L0,11 L0,2" fill="#323232" stroke="#323232" stroke-width="2"></path></marker><marker id="SvgjsMarker1074" markerWidth="16" markerHeight="12" refX="16" refY="6" viewBox="0 0 16 12" orient="auto" markerUnits="userSpaceOnUse" stroke-dasharray="0,0"><path id="SvgjsPath1075" d="M0,2 L14,6 L0,11 L0,2" fill="#323232" stroke="#323232" stroke-width="2"></path></marker><marker id="SvgjsMarker1078" markerWidth="16" markerHeight="12" refX="16" refY="6" viewBox="0 0 16 12" orient="auto" markerUnits="userSpaceOnUse" stroke-dasharray="0,0"><path id="SvgjsPath1079" d="M0,2 L14,6 L0,11 L0,2" fill="#323232" stroke="#323232" stroke-width="2"></path></marker><marker id="SvgjsMarker1082" markerWidth="16" markerHeight="12" refX="16" refY="6" viewBox="0 0 16 12" orient="auto" markerUnits="userSpaceOnUse" stroke-dasharray="0,0"><path id="SvgjsPath1083" d="M0,2 L14,6 L0,11 L0,2" fill="#323232" stroke="#323232" stroke-width="2"></path></marker><marker id="SvgjsMarker1086" markerWidth="16" markerHeight="12" refX="16" refY="6" viewBox="0 0 16 12" orient="auto" markerUnits="userSpaceOnUse" stroke-dasharray="0,0"><path id="SvgjsPath1087" d="M0,2 L14,6 L0,11 L0,2" fill="#323232" stroke="#323232" stroke-width="2"></path></marker><marker id="SvgjsMarker1090" markerWidth="16" markerHeight="12" refX="16" refY="6" viewBox="0 0 16 12" orient="auto" markerUnits="userSpaceOnUse" stroke-dasharray="0,0"><path id="SvgjsPath1091" d="M0,2 L14,6 L0,11 L0,2" fill="#323232" stroke="#323232" stroke-width="2"></path></marker><marker id="SvgjsMarker1094" markerWidth="16" markerHeight="12" refX="16" refY="6" viewBox="0 0 16 12" orient="auto" markerUnits="userSpaceOnUse" stroke-dasharray="0,0"><path id="SvgjsPath1095" d="M0,2 L14,6 L0,11 L0,2" fill="#323232" stroke="#323232" stroke-width="2"></path></marker><marker id="SvgjsMarker1098" markerWidth="16" markerHeight="12" refX="16" refY="6" viewBox="0 0 16 12" orient="auto" markerUnits="userSpaceOnUse" stroke-dasharray="0,0"><path id="SvgjsPath1099" d="M0,2 L14,6 L0,11 L0,2" fill="#323232" stroke="#323232" stroke-width="2"></path></marker><marker id="SvgjsMarker1134" markerWidth="16" markerHeight="12" refX="16" refY="6" viewBox="0 0 16 12" orient="auto" markerUnits="userSpaceOnUse" stroke-dasharray="0,0"><path id="SvgjsPath1135" d="M0,2 L14,6 L0,11 L0,2" fill="#323232" stroke="#323232" stroke-width="2"></path></marker><marker id="SvgjsMarker1144" markerWidth="16" markerHeight="12" refX="16" refY="6" viewBox="0 0 16 12" orient="auto" markerUnits="userSpaceOnUse" stroke-dasharray="0,0"><path id="SvgjsPath1145" d="M0,2 L14,6 L0,11 L0,2" fill="#323232" stroke="#323232" stroke-width="2"></path></marker><marker id="SvgjsMarker1148" markerWidth="16" markerHeight="12" refX="16" refY="6" viewBox="0 0 16 12" orient="auto" markerUnits="userSpaceOnUse" stroke-dasharray="0,0"><path id="SvgjsPath1149" d="M0,2 L14,6 L0,11 L0,2" fill="#323232" stroke="#323232" stroke-width="2"></path></marker><marker id="SvgjsMarker1152" markerWidth="16" markerHeight="12" refX="16" refY="6" viewBox="0 0 16 12" orient="auto" markerUnits="userSpaceOnUse" stroke-dasharray="0,0"><path id="SvgjsPath1153" d="M0,2 L14,6 L0,11 L0,2" fill="#323232" stroke="#323232" stroke-width="2"></path></marker><marker id="SvgjsMarker1156" markerWidth="16" markerHeight="12" refX="16" refY="6" viewBox="0 0 16 12" orient="auto" markerUnits="userSpaceOnUse" stroke-dasharray="0,0"><path id="SvgjsPath1157" d="M0,2 L14,6 L0,11 L0,2" fill="#323232" stroke="#323232" stroke-width="2"></path></marker><marker id="SvgjsMarker1160" markerWidth="16" markerHeight="12" refX="16" refY="6" viewBox="0 0 16 12" orient="auto" markerUnits="userSpaceOnUse" stroke-dasharray="0,0"><path id="SvgjsPath1161" d="M0,2 L14,6 L0,11 L0,2" fill="#323232" stroke="#323232" stroke-width="2"></path></marker></defs><g id="SvgjsG1008" transform="translate(67.99998474121094,25.008005142211914)"><path id="SvgjsPath1009" d="M 0 35C 0 -11.666666666666666 70 -11.666666666666666 70 35C 70 81.66666666666667 0 81.66666666666667 0 35Z" stroke="rgba(50,50,50,1)" stroke-width="2" fill-opacity="1" fill="#00cc66"></path><g id="SvgjsG1010"><text id="SvgjsText1011" font-family="微软雅黑" text-anchor="middle" font-size="13px" width="50px" fill="#323232" font-weight="400" align="middle" anchor="middle" family="微软雅黑" size="13px" weight="400" font-style="" opacity="1" y="25.55" transform="rotate(0)"><tspan id="SvgjsTspan1012" dy="16" x="35"><tspan id="SvgjsTspan1013" style="text-decoration:;">input_0</tspan></tspan></text></g></g><g id="SvgjsG1014" transform="translate(238.99998474121094,111.00800514221191)"><path id="SvgjsPath1015" d="M 0 35C 0 -11.666666666666666 70 -11.666666666666666 70 35C 70 81.66666666666667 0 81.66666666666667 0 35Z" stroke="rgba(50,50,50,1)" stroke-width="2" fill-opacity="1" fill="#00cc66"></path><g id="SvgjsG1016"><text id="SvgjsText1017" font-family="微软雅黑" text-anchor="middle" font-size="13px" width="50px" fill="#323232" font-weight="400" align="middle" anchor="middle" family="微软雅黑" size="13px" weight="400" font-style="" opacity="1" y="25.55" transform="rotate(0)"><tspan id="SvgjsTspan1018" dy="16" x="35"><tspan id="SvgjsTspan1019" style="text-decoration:;">input_1</tspan></tspan></text></g></g><g id="SvgjsG1020" transform="translate(238.99998474121094,279.0080051422119)"><path id="SvgjsPath1021" d="M 0 35C 0 -11.666666666666666 70 -11.666666666666666 70 35C 70 81.66666666666667 0 81.66666666666667 0 35Z" stroke="rgba(50,50,50,1)" stroke-width="2" fill-opacity="1" fill="#ffff00"></path><g id="SvgjsG1022"><text id="SvgjsText1023" font-family="微软雅黑" text-anchor="middle" font-size="13px" width="50px" fill="#323232" font-weight="400" align="middle" anchor="middle" family="微软雅黑" size="13px" weight="400" font-style="" opacity="1" y="25.55" transform="rotate(0)"><tspan id="SvgjsTspan1024" dy="16" x="35"><tspan id="SvgjsTspan1025" style="text-decoration:;">node 0</tspan></tspan></text></g></g><g id="SvgjsG1026" transform="translate(238.99998474121094,492.0080051422119)"><path id="SvgjsPath1027" d="M 0 35C 0 -11.666666666666666 70 -11.666666666666666 70 35C 70 81.66666666666667 0 81.66666666666667 0 35Z" stroke="rgba(50,50,50,1)" stroke-width="2" fill-opacity="1" fill="#ffff00"></path><g id="SvgjsG1028"><text id="SvgjsText1029" font-family="微软雅黑" text-anchor="middle" font-size="13px" width="50px" fill="#323232" font-weight="400" align="middle" anchor="middle" family="微软雅黑" size="13px" weight="400" font-style="" opacity="1" y="25.55" transform="rotate(0)"><tspan id="SvgjsTspan1030" dy="16" x="35"><tspan id="SvgjsTspan1031" style="text-decoration:;">node 2</tspan></tspan></text></g></g><g id="SvgjsG1032" transform="translate(67.99998474121094,372.0080051422119)"><path id="SvgjsPath1033" d="M 0 35C 0 -11.666666666666666 70 -11.666666666666666 70 35C 70 81.66666666666667 0 81.66666666666667 0 35Z" stroke="rgba(50,50,50,1)" stroke-width="2" fill-opacity="1" fill="#ffff00"></path><g id="SvgjsG1034"><text id="SvgjsText1035" font-family="微软雅黑" text-anchor="middle" font-size="13px" width="50px" fill="#323232" font-weight="400" align="middle" anchor="middle" family="微软雅黑" size="13px" weight="400" font-style="" opacity="1" y="25.55" transform="rotate(0)"><tspan id="SvgjsTspan1036" dy="16" x="35"><tspan id="SvgjsTspan1037" style="text-decoration:;">node 1</tspan></tspan></text></g></g><g id="SvgjsG1038" transform="translate(67.99998474121094,594.0080051422119)"><path id="SvgjsPath1039" d="M 0 35C 0 -11.666666666666666 70 -11.666666666666666 70 35C 70 81.66666666666667 0 81.66666666666667 0 35Z" stroke="rgba(50,50,50,1)" stroke-width="2" fill-opacity="1" fill="#ffff00"></path><g id="SvgjsG1040"><text id="SvgjsText1041" font-family="微软雅黑" text-anchor="middle" font-size="13px" width="50px" fill="#323232" font-weight="400" align="middle" anchor="middle" family="微软雅黑" size="13px" weight="400" font-style="" opacity="1" y="25.55" transform="rotate(0)"><tspan id="SvgjsTspan1042" dy="16" x="35"><tspan id="SvgjsTspan1043" style="text-decoration:;">node 3</tspan></tspan></text></g></g><g id="SvgjsG1044"><path id="SvgjsPath1045" d="M102.99998474121094 95.00800514221191C 111.75708566874948 195.1021267645375 282.7570856687495 178.91388351988633 273.99998474121094 279.0080051422119" stroke-dasharray="8,5" stroke="#323232" stroke-width="2" fill="none" marker-end="url(#SvgjsMarker1046)"></path></g><g id="SvgjsG1048"><path id="SvgjsPath1049" d="M273.99998474121094 181.0080051422119C 277.41648985691916 220.05883730740834 277.41648985691916 239.9571729770155 273.99998474121094 279.0080051422119" stroke-dasharray="8,5" stroke="#323232" stroke-width="2" fill="none" marker-end="url(#SvgjsMarker1050)"></path></g><g id="SvgjsG1052"><path id="SvgjsPath1053" d="M273.99998474121094 349.0080051422119C 278.98529322637694 405.9903418730597 278.98529322637705 435.0256684113641 273.99998474121094 492.0080051422119" stroke-dasharray="8,5" stroke="#323232" stroke-width="2" fill="none" marker-end="url(#SvgjsMarker1054)"></path></g><g id="SvgjsG1056"><path id="SvgjsPath1057" d="M102.99998474121094 95.00800514221191C 112.65684103765147 205.38637769077735 112.65684103765147 261.6296325936465 102.99998474121094 372.0080051422119" stroke-dasharray="8,5" stroke="#323232" stroke-width="2" fill="none" marker-end="url(#SvgjsMarker1058)"></path></g><g id="SvgjsG1060"><path id="SvgjsPath1061" d="M273.99998474121094 349.0080051422119C 280.01512026970283 417.7613188410721 109.01512026970283 303.2546914433517 102.99998474121094 372.0080051422119" stroke-dasharray="8,5" stroke="#323232" stroke-width="2" fill="none" marker-end="url(#SvgjsMarker1062)"></path></g><g id="SvgjsG1064"><path id="SvgjsPath1065" d="M102.99998474121094 442.0080051422119C 108.29905390026858 502.57664278619006 108.29905390026858 533.4393674982338 102.99998474121094 594.0080051422119" stroke-dasharray="8,5" stroke="#323232" stroke-width="2" fill="none" marker-end="url(#SvgjsMarker1066)"></path></g><g id="SvgjsG1068"><path id="SvgjsPath1069" d="M273.99998474121094 349.0080051422119C 284.41593834944956 468.0628996675149 113.41593834944956 474.95311061690893 102.99998474121094 594.0080051422119" stroke-dasharray="8,5" stroke="#323232" stroke-width="2" fill="none" marker-end="url(#SvgjsMarker1070)"></path></g><g id="SvgjsG1072"><path id="SvgjsPath1073" d="M273.99998474121094 181.0080051422119C 212.99998474121094 264.0080051422119 111.93738864405282 269.8530110818261 102.99998474121094 372.0080051422119" stroke-dasharray="8,5" stroke="#323232" stroke-width="2" fill="none" marker-end="url(#SvgjsMarker1074)"></path></g><g id="SvgjsG1076"><path id="SvgjsPath1077" d="M102.99998474121094 442.0080051422119C 109.2110530012738 513.0008402107513 280.21105300127385 421.0151700736725 273.99998474121094 492.0080051422119" stroke-dasharray="8,5" stroke="#323232" stroke-width="2" fill="none" marker-end="url(#SvgjsMarker1078)"></path></g><g id="SvgjsG1080"><path id="SvgjsPath1081" d="M273.99998474121094 562.0080051422119C 280.06492236717565 631.3305594199732 109.0649223671756 524.6854508644507 102.99998474121094 594.0080051422119" stroke-dasharray="8,5" stroke="#323232" stroke-width="2" fill="none" marker-end="url(#SvgjsMarker1082)"></path></g><g id="SvgjsG1084"><path id="SvgjsPath1085" d="M102.99998474121094 95.00800514221191C 24.999984741210938 329.0080051422119 30.999984741210938 425.0080051422119 102.99998474121094 594.0080051422119" stroke-dasharray="8,5" stroke="#323232" stroke-width="2" fill="none" marker-end="url(#SvgjsMarker1086)"></path></g><g id="SvgjsG1088"><path id="SvgjsPath1089" d="M273.99998474121094 181.0080051422119C 222.99998474121094 348.0080051422119 118.5834705403015 415.88794739926834 102.99998474121094 594.0080051422119" stroke-dasharray="8,5" stroke="#323232" stroke-width="2" fill="none" marker-end="url(#SvgjsMarker1090)"></path></g><g id="SvgjsG1092"><path id="SvgjsPath1093" d="M273.99998474121094 181.0080051422119C 319.99998474121094 315.0080051422119 358.99998474121094 344.0080051422119 273.99998474121094 492.0080051422119" stroke-dasharray="8,5" stroke="#323232" stroke-width="2" fill="none" marker-end="url(#SvgjsMarker1094)"></path></g><g id="SvgjsG1096"><path id="SvgjsPath1097" d="M371.99998474121094 529.0080051422119L417.99998474121094 529.0080051422119" stroke-dasharray="8,5" stroke="#323232" stroke-width="2" fill="none" marker-end="url(#SvgjsMarker1098)"></path></g><g id="SvgjsG1100" transform="translate(435.99998474121094,504.0080051422119)"><path id="SvgjsPath1101" d="M 0 0L 238 0L 238 46L 0 46Z" stroke="none" fill="none"></path><g id="SvgjsG1102"><text id="SvgjsText1103" font-family="微软雅黑" text-anchor="start" font-size="13px" width="238px" fill="#323232" font-weight="400" align="middle" anchor="start" family="微软雅黑" size="13px" weight="400" font-style="" opacity="1" y="-1.95" transform="rotate(0)"><tspan id="SvgjsTspan1104" dy="16" x="0"><tspan id="SvgjsTspan1105" style="text-decoration:;">choose one operation from MaxPool, </tspan></tspan><tspan id="SvgjsTspan1106" dy="16" x="0"><tspan id="SvgjsTspan1107" style="text-decoration:;">AvgPool, SepConvBN3x3, SepConvBN</tspan></tspan><tspan id="SvgjsTspan1108" dy="16" x="0"><tspan id="SvgjsTspan1109" style="text-decoration:;">5x5, SkipConnect</tspan></tspan></text></g></g><g id="SvgjsG1110" transform="translate(371.99998474121094,562.0080051422119)"><path id="SvgjsPath1111" d="M 0 25.5C 0 -8.5 51 -8.5 51 25.5C 51 59.5 0 59.5 0 25.5Z" stroke="rgba(50,50,50,1)" stroke-width="2" fill-opacity="1" fill="#ffff00"></path><g id="SvgjsG1112"><text id="SvgjsText1113" font-family="微软雅黑" text-anchor="middle" font-size="13px" width="31px" fill="#323232" font-weight="400" align="middle" anchor="middle" family="微软雅黑" size="13px" weight="400" font-style="" opacity="1" y="16.05" transform="rotate(0)"></text></g></g><g id="SvgjsG1114" transform="translate(371.99998474121094,637.0080051422119)"><path id="SvgjsPath1115" d="M 0 25.5C 0 -8.5 51 -8.5 51 25.5C 51 59.5 0 59.5 0 25.5Z" stroke="rgba(50,50,50,1)" stroke-width="2" fill-opacity="1" fill="#00cc66"></path><g id="SvgjsG1116"><text id="SvgjsText1117" font-family="微软雅黑" text-anchor="middle" font-size="13px" width="31px" fill="#323232" font-weight="400" align="middle" anchor="middle" family="微软雅黑" size="13px" weight="400" font-style="" opacity="1" y="16.05" transform="rotate(0)"></text></g></g><g id="SvgjsG1118" transform="translate(435.99998474121094,566.5080051422119)"><path id="SvgjsPath1119" d="M 0 0L 244 0L 244 42L 0 42Z" stroke="none" fill="none"></path><g id="SvgjsG1120"><text id="SvgjsText1121" font-family="微软雅黑" text-anchor="start" font-size="13px" width="244px" fill="#323232" font-weight="400" align="middle" anchor="start" family="微软雅黑" size="13px" weight="400" font-style="" opacity="1" y="3.55" transform="rotate(0)"><tspan id="SvgjsTspan1122" dy="16" x="0"><tspan id="SvgjsTspan1123" style="text-decoration:;">accept two operations from all inputs, </tspan></tspan><tspan id="SvgjsTspan1124" dy="16" x="0"><tspan id="SvgjsTspan1125" style="text-decoration:;">then add the results as output</tspan></tspan></text></g></g><g id="SvgjsG1126" transform="translate(435.99998474121094,642.5080051422119)"><path id="SvgjsPath1127" d="M 0 0L 224 0L 224 40L 0 40Z" stroke="none" fill="none"></path><g id="SvgjsG1128"><text id="SvgjsText1129" font-family="微软雅黑" text-anchor="start" font-size="13px" width="224px" fill="#323232" font-weight="400" align="middle" anchor="start" family="微软雅黑" size="13px" weight="400" font-style="" opacity="1" y="10.55" transform="rotate(0)"><tspan id="SvgjsTspan1130" dy="16" x="0"><tspan id="SvgjsTspan1131" style="text-decoration:;">results of previous layers as input</tspan></tspan></text></g></g><g id="SvgjsG1132"><path id="SvgjsPath1133" d="M102.99998474121094 95.00800514221191C 118.06961340198137 267.2546489180095 289.0696134019814 319.76136136641435 273.99998474121094 492.0080051422119" stroke-dasharray="8,5" stroke="#323232" stroke-width="2" fill="none" marker-end="url(#SvgjsMarker1134)"></path></g><g id="SvgjsG1136" transform="translate(150.99998474121094,729.0880031585693)"><path id="SvgjsPath1137" d="M 0 35C 0 -11.666666666666666 70 -11.666666666666666 70 35C 70 81.66666666666667 0 81.66666666666667 0 35Z" stroke-dasharray="3,4" stroke="rgba(50,50,50,1)" stroke-width="2" fill-opacity="1" fill="#cc99ff"></path><g id="SvgjsG1138"><text id="SvgjsText1139" font-family="微软雅黑" text-anchor="middle" font-size="13px" width="50px" fill="#323232" font-weight="400" align="middle" anchor="middle" family="微软雅黑" size="13px" weight="400" font-style="" opacity="1" y="25.55" transform="rotate(0)"><tspan id="SvgjsTspan1140" dy="16" x="35"><tspan id="SvgjsTspan1141" style="text-decoration:;">output</tspan></tspan></text></g></g><g id="SvgjsG1142"><path id="SvgjsPath1143" d="M102.99998474121094 442.0080051422119C 113.41815075849257 561.0881876185914 196.41815075849257 610.0078206821898 185.99998474121094 729.0880031585693" stroke-dasharray="3,3" stroke="#323232" stroke-width="2" fill="none" marker-end="url(#SvgjsMarker1144)"></path></g><g id="SvgjsG1146"><path id="SvgjsPath1147" d="M102.99998474121094 664.0080051422119C 106.67699141184806 706.0363837051965 189.67699141184806 687.0596245955848 185.99998474121094 729.0880031585693" stroke-dasharray="3,3" stroke="#323232" stroke-width="2" fill="none" marker-end="url(#SvgjsMarker1148)"></path></g><g id="SvgjsG1150"><path id="SvgjsPath1151" d="M273.99998474121094 562.0080051422119C 280.58330524633993 637.2557028416771 192.58330524633993 653.8403054591041 185.99998474121094 729.0880031585693" stroke-dasharray="3,3" stroke="#323232" stroke-width="2" fill="none" marker-end="url(#SvgjsMarker1152)"></path></g><g id="SvgjsG1154"><path id="SvgjsPath1155" d="M273.99998474121094 349.0080051422119C 233.99998474121094 500.92799377441406 199.60096408433088 573.6280978979321 185.99998474121094 729.0880031585693" stroke-dasharray="3,3" stroke="#323232" stroke-width="2" fill="none" marker-end="url(#SvgjsMarker1156)"></path></g><g id="SvgjsG1158"><path id="SvgjsPath1159" d="M369.99998474121094 477.92799377441406L394.49998474121094 477.92799377441406L394.49998474121094 477.92799377441406L418.99998474121094 477.92799377441406" stroke-dasharray="3,3" stroke="#323232" stroke-width="2" fill="none" marker-end="url(#SvgjsMarker1160)"></path></g><g id="SvgjsG1162" transform="translate(435.99998474121094,448.0080051422119)"><path id="SvgjsPath1163" d="M 0 0L 243 0L 243 50.91998863220215L 0 50.91998863220215Z" stroke="none" fill="none"></path><g id="SvgjsG1164"><text id="SvgjsText1165" font-family="微软雅黑" text-anchor="start" font-size="13px" width="243px" fill="#323232" font-weight="400" align="middle" anchor="start" family="微软雅黑" size="13px" weight="400" font-style="" opacity="1" y="16.009994316101075" transform="rotate(0)"><tspan id="SvgjsTspan1166" dy="16" x="0"><tspan id="SvgjsTspan1167" style="text-decoration:;">pass the result directly to the output</tspan></tspan></text></g></g><g id="SvgjsG1168" transform="translate(371.99998474121094,709.0080051422119)"><path id="SvgjsPath1169" d="M 0 25.5C 0 -8.5 51 -8.5 51 25.5C 51 59.5 0 59.5 0 25.5Z" stroke-dasharray="3,4" stroke="rgba(50,50,50,1)" stroke-width="2" fill-opacity="1" fill="#cc99ff"></path><g id="SvgjsG1170"><text id="SvgjsText1171" font-family="微软雅黑" text-anchor="middle" font-size="13px" width="31px" fill="#323232" font-weight="400" align="middle" anchor="middle" family="微软雅黑" size="13px" weight="400" font-style="" opacity="1" y="16.05" transform="rotate(0)"></text></g></g><g id="SvgjsG1172" transform="translate(438.99998474121094,729.0880031585693)"><path id="SvgjsPath1173" d="M 0 0L 240 0L 240 19.920001983642578L 0 19.920001983642578Z" stroke="none" fill="none"></path><g id="SvgjsG1174"><text id="SvgjsText1175" font-family="微软雅黑" text-anchor="start" font-size="13px" width="240px" fill="#323232" font-weight="400" align="middle" anchor="start" family="微软雅黑" size="13px" weight="400" font-style="" opacity="1" y="-30.48999900817871" transform="rotate(0)"><tspan id="SvgjsTspan1176" dy="16" x="0"><tspan id="SvgjsTspan1177" style="text-decoration:;">(the node does not exist) </tspan><tspan id="SvgjsTspan1178" style="text-decoration:;font-weight: bold;">Only accept </tspan></tspan><tspan id="SvgjsTspan1179" dy="16" x="0"><tspan id="SvgjsTspan1180" style="text-decoration:;font-weight: bold;">input whose starting point is not </tspan></tspan><tspan id="SvgjsTspan1181" dy="16" x="0"><tspan id="SvgjsTspan1182" style="text-decoration:;font-weight: bold;">served as input for any other node.</tspan><tspan id="SvgjsTspan1183" style="text-decoration:;"> </tspan></tspan><tspan id="SvgjsTspan1184" dy="16" x="0"><tspan id="SvgjsTspan1185" style="text-decoration:;">It calculates inputs' average value as </tspan></tspan><tspan id="SvgjsTspan1186" dy="16" x="0"><tspan id="SvgjsTspan1187" style="text-decoration:;">the output of this cell.</tspan></tspan></text></g></g></svg>