<svg width="52" height="41" viewBox="0 0 52 41" fill="none" xmlns="http://www.w3.org/2000/svg">
<path fill-rule="evenodd" clip-rule="evenodd" d="M0 4C0 1.79086 1.79086 0 4 0H20C22.207 0 23.9965 1.78737 24 3.99353C24 3.99572 24 3.99791 24 4.00012C24 5.6481 25.3288 6.98572 26.9734 7H48C50.2091 7 52 8.79086 52 11V37C52 39.2091 50.2091 41 48 41H4C1.79086 41 0 39.2091 0 37V11V4Z" fill="#374BAE"/>
<path d="M10.5 26L17.5 16.5L28.5 28.5L41.5 23.5" stroke="white"/>
<circle cx="10" cy="27" r="2" fill="#FF78B0"/>
<circle cx="17.5" cy="16.5" r="2.5" fill="#FDDE83"/>
<circle cx="41.5" cy="23.5" r="2.5" fill="white"/>
<path d="M33 27.5C33 29.9853 30.9853 32 28.5 32C26.0147 32 24 29.9853 24 27.5C24 25.0147 26.0147 23 28.5 23C30.9853 23 33 25.0147 33 27.5Z" fill="#A3DAF8"/>
</svg>
