<svg width="107" height="77" viewBox="0 0 107 77" fill="none" xmlns="http://www.w3.org/2000/svg">
<rect x="13.3333" y="0.666992" width="93.3333" height="66.6667" rx="4" fill="#706095"/>
<rect x="18.3333" y="5.66699" width="83.3333" height="56.6667" rx="4" fill="#D0A6D4"/>
<circle cx="22.9166" cy="10.2505" r="1.25" fill="#FF78B0"/>
<circle cx="27.9166" cy="10.2505" r="1.25" fill="#FFC694"/>
<circle cx="32.9166" cy="10.2505" r="1.25" fill="#BCD0D1"/>
<circle cx="95.4166" cy="10.2505" r="1.25" fill="white"/>
<rect x="21.6666" y="14.0005" width="76.6667" height="5" rx="2.5" fill="white"/>
<rect x="24.1666" y="15.667" width="8.33333" height="1.66667" rx="0.833333" fill="#706095"/>
<rect x="34.1666" y="15.667" width="4.16667" height="1.66667" rx="0.833333" fill="#706095"/>
<rect x="40" y="15.667" width="6.66667" height="1.66667" rx="0.833333" fill="#706095"/>
<rect x="55" y="22.3335" width="43.3333" height="36.6667" rx="2" fill="#554775"/>
<path d="M78.3334 42.3335L80.8334 44.8335L78.3334 47.3335" stroke="white" stroke-width="2"/>
<path d="M62.808 39.2886C62.3822 39.2886 62.0726 39.2104 61.8793 39.0542C61.6859 38.8979 61.5892 38.6196 61.5892 38.2192V37.5161C61.5892 37.1567 61.4408 36.9771 61.1439 36.9771V36.438C61.4408 36.438 61.5892 36.2515 61.5892 35.8784V35.2251C61.5892 34.8228 61.6849 34.5405 61.8763 34.3784C62.0677 34.2144 62.3783 34.1323 62.808 34.1323V34.6802C62.4955 34.6802 62.3392 34.8501 62.3392 35.1899V35.814C62.3392 36.2827 62.1888 36.5786 61.8881 36.7017V36.7134C62.1888 36.8345 62.3392 37.1343 62.3392 37.6128V38.2134C62.3392 38.4048 62.3754 38.5405 62.4476 38.6206C62.5219 38.7007 62.642 38.7407 62.808 38.7407V39.2886ZM62.7406 64.9771C62.4418 64.9771 62.2924 65.1597 62.2924 65.5249V66.2017C62.2924 66.6138 62.1967 66.8979 62.0052 67.0542C61.8158 67.2104 61.5072 67.2886 61.0795 67.2886V66.7407C61.2435 66.7407 61.3627 66.7007 61.4369 66.6206C61.5111 66.5425 61.5482 66.4087 61.5482 66.2192V65.5952C61.5482 65.1284 61.6976 64.8364 61.9965 64.7192V64.7075C61.6976 64.5845 61.5482 64.2788 61.5482 63.7905V63.1899C61.5482 62.8501 61.392 62.6802 61.0795 62.6802V62.1323C61.5052 62.1323 61.8138 62.2144 62.0052 62.3784C62.1967 62.5405 62.2924 62.8188 62.2924 63.2134V63.8843C62.2924 64.2534 62.4418 64.438 62.7406 64.438V64.9771Z" fill="white" fill-opacity="0.2"/>
<path d="M68.4 48.8335H66.3561V47.8286H66.3287C65.8593 48.6125 65.1643 49.0044 64.2438 49.0044C63.5647 49.0044 63.0293 48.813 62.6373 48.4302C62.25 48.0428 62.0563 47.5278 62.0563 46.8853C62.0563 45.5272 62.8606 44.7433 64.4694 44.5337L66.3698 44.2808C66.3698 43.5151 65.955 43.1323 65.1256 43.1323C64.2916 43.1323 63.4987 43.3807 62.7467 43.8774V42.2505C63.0475 42.0955 63.4576 41.9588 63.9772 41.8403C64.5013 41.7218 64.9775 41.6626 65.4059 41.6626C67.402 41.6626 68.4 42.6584 68.4 44.6499V48.8335ZM66.3698 45.9897V45.5181L65.0983 45.6821C64.3964 45.7733 64.0455 46.09 64.0455 46.6323C64.0455 46.8784 64.1298 47.0812 64.2985 47.2407C64.4716 47.3957 64.7041 47.4731 64.9957 47.4731C65.4013 47.4731 65.7317 47.3341 65.9869 47.0562C66.2421 46.7736 66.3698 46.4181 66.3698 45.9897Z" fill="white"/>
<path d="M90.4874 47.2661C89.8868 48.4331 88.9811 49.0166 87.7701 49.0166C86.818 49.0166 86.0685 48.6724 85.5216 47.9839C84.9747 47.2954 84.7013 46.3994 84.7013 45.2959C84.7013 44.0996 85.0187 43.1108 85.6534 42.3296C86.2882 41.5435 87.1403 41.1504 88.2096 41.1504C89.4156 41.1504 90.2311 41.6655 90.6559 42.6958H90.6925L91.1027 41.3335H93.4391L91.8204 45.1348C92.006 45.8281 92.1964 46.3286 92.3917 46.6362C92.5919 46.939 92.8214 47.0903 93.0802 47.0903C93.3097 47.0903 93.5026 47.0513 93.6588 46.9731L93.6295 48.7456C93.3073 48.8774 92.9386 48.9434 92.5236 48.9434C91.9865 48.9434 91.5592 48.814 91.2418 48.5552C90.9293 48.2915 90.6925 47.8618 90.5314 47.2661H90.4874ZM89.9894 44.981C89.7062 43.5991 89.2106 42.9082 88.5026 42.9082C88.0387 42.9082 87.6749 43.123 87.4113 43.5527C87.1476 43.9824 87.0157 44.5171 87.0157 45.1567C87.0157 45.7671 87.1207 46.2651 87.3307 46.6509C87.5455 47.0317 87.8556 47.2222 88.2609 47.2222C88.9542 47.2222 89.4938 46.5898 89.8795 45.3252L89.9894 44.981Z" fill="white"/>
<rect opacity="0.3" x="70" y="42.3335" width="5.83333" height="1.66667" fill="white"/>
<rect opacity="0.3" x="70" y="45.667" width="5.83333" height="1.66667" fill="white"/>
<path d="M65.4883 31.8335H64.2227V29.5522H61.9023V31.8335H60.6406V26.2319H61.9023V28.4663H64.2227V26.2319H65.4883V31.8335ZM68.0352 29.9038V31.8335H66.7734V26.2319H68.75C70.1615 26.2319 70.8672 26.827 70.8672 28.0171C70.8672 28.5796 70.6641 29.0353 70.2578 29.3843C69.8542 29.7306 69.3138 29.9038 68.6367 29.9038H68.0352ZM68.0352 27.2007V28.9468H68.5312C69.2031 28.9468 69.5391 28.6525 69.5391 28.064C69.5391 27.4884 69.2031 27.2007 68.5312 27.2007H68.0352ZM74.0547 31.9312C73.2526 31.9312 72.599 31.6707 72.0938 31.1499C71.5885 30.6265 71.3359 29.9455 71.3359 29.1069C71.3359 28.2215 71.5924 27.5054 72.1055 26.9585C72.6185 26.4116 73.2982 26.1382 74.1445 26.1382C74.944 26.1382 75.5898 26.3999 76.082 26.9233C76.5768 27.4468 76.8242 28.1369 76.8242 28.9937C76.8242 29.8739 76.5677 30.5835 76.0547 31.1226C75.5443 31.6616 74.8776 31.9312 74.0547 31.9312ZM74.1094 27.2241C73.6667 27.2241 73.3151 27.3908 73.0547 27.7241C72.7943 28.0549 72.6641 28.4937 72.6641 29.0405C72.6641 29.5952 72.7943 30.034 73.0547 30.3569C73.3151 30.6799 73.6562 30.8413 74.0781 30.8413C74.513 30.8413 74.8581 30.6851 75.1133 30.3726C75.3685 30.0575 75.4961 29.6213 75.4961 29.064C75.4961 28.4832 75.3724 28.0314 75.125 27.7085C74.8776 27.3856 74.5391 27.2241 74.1094 27.2241Z" fill="white"/>
<rect x="21.6666" y="22.3335" width="30" height="36.6667" rx="2" fill="#E777A1"/>
<rect x="25" y="25.667" width="16.1538" height="1.66667" fill="#D0658D"/>
<rect x="25" y="29.8335" width="8.07692" height="1.66667" fill="#D0658D"/>
<rect x="33.9744" y="29.8335" width="14.359" height="1.66667" fill="#D0658D"/>
<rect x="27.6924" y="34.0005" width="7.17949" height="1.66667" fill="white"/>
<rect x="25.8975" y="38.167" width="6.28205" height="1.66667" fill="white"/>
<rect x="25" y="42.3335" width="3.58974" height="1.66667" fill="white"/>
<rect x="25.8975" y="46.5005" width="7.17949" height="1.66667" fill="white"/>
<rect x="33.9744" y="46.5005" width="3.58974" height="1.66667" fill="white"/>
<rect x="29.4873" y="42.3335" width="8.07692" height="1.66667" fill="white"/>
<rect x="35.7693" y="34.0005" width="1.79487" height="1.66667" fill="white"/>
<rect x="33.0769" y="38.167" width="6.28205" height="1.66667" fill="white"/>
<rect x="38.4614" y="34.0005" width="9.8718" height="1.66667" fill="white"/>
<g filter="url(#filter0_d_73_619)">
<rect x="6.66663" y="33.167" width="45" height="35" rx="4" fill="#FFFDFD"/>
</g>
<circle cx="11.2499" cy="36.917" r="1.25" fill="#FF78B0"/>
<circle cx="16.2499" cy="36.917" r="1.25" fill="#FFC694"/>
<circle cx="21.2499" cy="36.917" r="1.25" fill="#BCD0D1"/>
<rect x="9.16663" y="39.8335" width="40" height="25.8333" rx="3" fill="#FEDFEB"/>
<path d="M27.4378 42.3335V45.1979L22.9004 49.7606C19.4783 53.0813 21.4048 60.2042 27.311 60.3056C33.7242 60.1028 35.3972 53.1066 31.8991 49.6085L33.344 48.189C38.2363 52.9292 35.4479 62.3335 27.311 62.3335C18.7179 61.9279 17.2984 52.3208 21.3034 48.4425L27.4378 42.3335Z" fill="#EF4C2D"/>
<circle cx="30.3783" cy="46.6935" r="1.11534" fill="#EF4C2D"/>
<defs>
<filter id="filter0_d_73_619" x="0.666626" y="29.167" width="57" height="47" filterUnits="userSpaceOnUse" color-interpolation-filters="sRGB">
<feFlood flood-opacity="0" result="BackgroundImageFix"/>
<feColorMatrix in="SourceAlpha" type="matrix" values="0 0 0 0 0 0 0 0 0 0 0 0 0 0 0 0 0 0 127 0" result="hardAlpha"/>
<feOffset dy="2"/>
<feGaussianBlur stdDeviation="3"/>
<feComposite in2="hardAlpha" operator="out"/>
<feColorMatrix type="matrix" values="0 0 0 0 0.968627 0 0 0 0 0.705882 0 0 0 0 0.670588 0 0 0 0.38 0"/>
<feBlend mode="normal" in2="BackgroundImageFix" result="effect1_dropShadow_73_619"/>
<feBlend mode="normal" in="SourceGraphic" in2="effect1_dropShadow_73_619" result="shape"/>
</filter>
</defs>
</svg>
