<svg width="110" height="75" viewBox="0 0 110 75" fill="none" xmlns="http://www.w3.org/2000/svg">
<g filter="url(#filter0_d_73_582)">
<rect x="6.33337" y="26.5" width="30" height="40" rx="4" fill="#FFFDFD"/>
</g>
<circle cx="10.9167" cy="31.0835" r="1.25" fill="#FF78B0"/>
<circle cx="15.9167" cy="31.0835" r="1.25" fill="#FFC694"/>
<circle cx="20.9167" cy="31.0835" r="1.25" fill="#BCD0D1"/>
<rect x="9.66675" y="35.6665" width="23.3333" height="27.5" rx="3" fill="#E3D9C4"/>
<rect x="16.3334" y="0.666992" width="93.3333" height="66.6667" rx="4" fill="#6AA8AF"/>
<rect x="21.3334" y="5.66699" width="83.3333" height="56.6667" rx="4" fill="#FFFDFD"/>
<circle cx="25.9167" cy="10.2505" r="1.25" fill="#FF78B0"/>
<circle cx="30.9167" cy="10.2505" r="1.25" fill="#FFC694"/>
<circle cx="35.9167" cy="10.2505" r="1.25" fill="#BCD0D1"/>
<rect x="24.6667" y="14.0005" width="76.6667" height="5" rx="2.5" fill="#6AA8AF"/>
<rect x="27.1667" y="15.667" width="8.33333" height="1.66667" rx="0.833333" fill="white"/>
<rect x="37.1667" y="15.667" width="4.16667" height="1.66667" rx="0.833333" fill="white"/>
<rect x="43" y="15.667" width="6.66667" height="1.66667" rx="0.833333" fill="white"/>
<rect x="24.6667" y="22.3335" width="30" height="16.6667" rx="2" fill="#E3D9C4"/>
<circle cx="30.0835" cy="34.4168" r="1.58333" fill="#FFC971" stroke="#1F2755"/>
<path d="M30.9167 33.1668L35.9167 27.3335L43.8334 34.0002L48.8334 27.3335" stroke="#1F2755"/>
<circle cx="36.3334" cy="27.3335" r="2" fill="#72A6E0" stroke="#1F2755"/>
<circle cx="43.8334" cy="34" r="2" fill="#FF8290" stroke="#1F2755"/>
<circle cx="48.8334" cy="27.3337" r="1.16667" fill="white" stroke="#1F2755"/>
<rect x="58" y="22.3335" width="43.3333" height="36.6667" rx="2" fill="#6AA8AF"/>
<rect x="63" y="37.3335" width="3.84615" height="16.6667" rx="1.92308" fill="#427B83"/>
<rect x="71.9744" y="41.1797" width="3.84615" height="12.8205" rx="1.92308" fill="#E0FFEE"/>
<rect x="80.9487" y="46.3081" width="3.84615" height="7.69231" rx="1.92308" fill="#E3D9C4"/>
<rect x="89.923" y="39.8979" width="3.84615" height="14.1026" rx="1.92308" fill="#7CC4CC"/>
<path d="M61.4805 32V27.7988H63.0098C63.4785 27.7988 63.8389 27.8848 64.0908 28.0566C64.3428 28.2285 64.4688 28.4707 64.4688 28.7832C64.4688 29.0098 64.3916 29.208 64.2373 29.3779C64.085 29.5479 63.8896 29.666 63.6514 29.7324V29.7441C63.9502 29.7812 64.1885 29.8916 64.3662 30.0752C64.5459 30.2588 64.6357 30.4824 64.6357 30.7461C64.6357 31.1309 64.498 31.4365 64.2227 31.6631C63.9473 31.8877 63.5713 32 63.0947 32H61.4805ZM62.4268 28.4961V29.4922H62.8428C63.0381 29.4922 63.1914 29.4453 63.3027 29.3516C63.416 29.2559 63.4727 29.125 63.4727 28.959C63.4727 28.6504 63.2422 28.4961 62.7812 28.4961H62.4268ZM62.4268 30.1953V31.3027H62.9395C63.1582 31.3027 63.3291 31.252 63.4521 31.1504C63.5771 31.0488 63.6396 30.9102 63.6396 30.7344C63.6396 30.5664 63.5781 30.4346 63.4551 30.3389C63.334 30.2432 63.1641 30.1953 62.9453 30.1953H62.4268ZM67.9346 30.7637H65.9775C66.0088 31.1992 66.2832 31.417 66.8008 31.417C67.1309 31.417 67.4209 31.3389 67.6709 31.1826V31.8506C67.3936 31.999 67.0332 32.0732 66.5898 32.0732C66.1055 32.0732 65.7295 31.9395 65.4619 31.6719C65.1943 31.4023 65.0605 31.0273 65.0605 30.5469C65.0605 30.0488 65.2051 29.6543 65.4941 29.3633C65.7832 29.0723 66.1387 28.9268 66.5605 28.9268C66.998 28.9268 67.3359 29.0566 67.5742 29.3164C67.8145 29.5762 67.9346 29.9287 67.9346 30.374V30.7637ZM67.0762 30.1953C67.0762 29.7656 66.9023 29.5508 66.5547 29.5508C66.4062 29.5508 66.2773 29.6123 66.168 29.7354C66.0605 29.8584 65.9951 30.0117 65.9717 30.1953H67.0762ZM71.3828 32H70.46V30.333C70.46 29.8682 70.2939 29.6357 69.9619 29.6357C69.8018 29.6357 69.6699 29.6973 69.5664 29.8203C69.4629 29.9434 69.4111 30.0996 69.4111 30.2891V32H68.4854V29H69.4111V29.4746H69.4229C69.6436 29.1094 69.9648 28.9268 70.3867 28.9268C71.0508 28.9268 71.3828 29.3389 71.3828 30.1631V32ZM74.3916 31.8916C74.1826 32.0127 73.8809 32.0732 73.4863 32.0732C73.0254 32.0732 72.6523 31.9336 72.3672 31.6543C72.082 31.375 71.9395 31.0146 71.9395 30.5732C71.9395 30.0635 72.0918 29.6621 72.3965 29.3691C72.7031 29.0742 73.1123 28.9268 73.624 28.9268C73.9775 28.9268 74.2334 28.9736 74.3916 29.0674V29.8525C74.1982 29.708 73.9824 29.6357 73.7441 29.6357C73.4785 29.6357 73.2676 29.7139 73.1113 29.8701C72.957 30.0244 72.8799 30.2383 72.8799 30.5117C72.8799 30.7773 72.9541 30.9863 73.1025 31.1387C73.251 31.2891 73.4551 31.3643 73.7148 31.3643C73.9453 31.3643 74.1709 31.292 74.3916 31.1475V31.8916ZM77.8809 32H76.958V30.2949C76.958 29.8555 76.7979 29.6357 76.4775 29.6357C76.3135 29.6357 76.1807 29.6973 76.0791 29.8203C75.9775 29.9434 75.9268 30.0996 75.9268 30.2891V32H75.001V27.5586H75.9268V29.4453H75.9385C76.165 29.0996 76.4727 28.9268 76.8613 28.9268C77.541 28.9268 77.8809 29.3369 77.8809 30.1572V32ZM83.3799 32H82.457V30.2891C82.457 29.8535 82.2969 29.6357 81.9766 29.6357C81.8242 29.6357 81.7002 29.7012 81.6045 29.832C81.5088 29.9629 81.4609 30.126 81.4609 30.3213V32H80.5352V30.2715C80.5352 29.8477 80.3779 29.6357 80.0635 29.6357C79.9053 29.6357 79.7783 29.6982 79.6826 29.8232C79.5889 29.9482 79.542 30.1182 79.542 30.333V32H78.6162V29H79.542V29.4688H79.5537C79.6494 29.3086 79.7832 29.1787 79.9551 29.0791C80.1289 28.9775 80.3184 28.9268 80.5234 28.9268C80.9473 28.9268 81.2373 29.1133 81.3936 29.4863C81.6221 29.1133 81.958 28.9268 82.4014 28.9268C83.0537 28.9268 83.3799 29.3291 83.3799 30.1338V32ZM86.6084 32H85.7324V31.5693H85.7207C85.5195 31.9053 85.2217 32.0732 84.8271 32.0732C84.5361 32.0732 84.3066 31.9912 84.1387 31.8271C83.9727 31.6611 83.8896 31.4404 83.8896 31.165C83.8896 30.583 84.2344 30.2471 84.9238 30.1572L85.7383 30.0488C85.7383 29.7207 85.5605 29.5566 85.2051 29.5566C84.8477 29.5566 84.5078 29.6631 84.1855 29.876V29.1787C84.3145 29.1123 84.4902 29.0537 84.7129 29.0029C84.9375 28.9521 85.1416 28.9268 85.3252 28.9268C86.1807 28.9268 86.6084 29.3535 86.6084 30.207V32ZM85.7383 30.7812V30.5791L85.1934 30.6494C84.8926 30.6885 84.7422 30.8242 84.7422 31.0566C84.7422 31.1621 84.7783 31.249 84.8506 31.3174C84.9248 31.3838 85.0244 31.417 85.1494 31.417C85.3232 31.417 85.4648 31.3574 85.5742 31.2383C85.6836 31.1172 85.7383 30.9648 85.7383 30.7812ZM89.2979 29.835C89.1865 29.7744 89.0566 29.7441 88.9082 29.7441C88.707 29.7441 88.5498 29.8184 88.4365 29.9668C88.3232 30.1133 88.2666 30.3135 88.2666 30.5674V32H87.3408V29H88.2666V29.5566H88.2783C88.4248 29.1504 88.6885 28.9473 89.0693 28.9473C89.167 28.9473 89.2432 28.959 89.2979 28.9824V29.835ZM92.7373 32H91.627L90.6689 30.5117H90.6572V32H89.7314V27.5586H90.6572V30.3857H90.6689L91.5625 29H92.6611L91.5859 30.4092L92.7373 32ZM92.8926 31.9209V31.1709C93.0449 31.2627 93.1963 31.3311 93.3467 31.376C93.499 31.4209 93.6426 31.4434 93.7773 31.4434C93.9414 31.4434 94.0703 31.4209 94.1641 31.376C94.2598 31.3311 94.3076 31.2627 94.3076 31.1709C94.3076 31.1123 94.2861 31.0635 94.2432 31.0244C94.2002 30.9854 94.1445 30.9512 94.0762 30.9219C94.0098 30.8926 93.9365 30.8662 93.8564 30.8428C93.7764 30.8193 93.6992 30.793 93.625 30.7637C93.5059 30.7188 93.4004 30.6709 93.3086 30.6201C93.2188 30.5674 93.1426 30.5068 93.0801 30.4385C93.0195 30.3701 92.9727 30.291 92.9395 30.2012C92.9082 30.1113 92.8926 30.0049 92.8926 29.8818C92.8926 29.7139 92.9287 29.5693 93.001 29.4482C93.0752 29.3271 93.1729 29.2285 93.2939 29.1523C93.417 29.0742 93.5566 29.0176 93.7129 28.9824C93.8711 28.9453 94.0352 28.9268 94.2051 28.9268C94.3379 28.9268 94.4727 28.9375 94.6094 28.959C94.7461 28.9785 94.8809 29.0078 95.0137 29.0469V29.7617C94.8965 29.6934 94.7705 29.6426 94.6357 29.6094C94.5029 29.5742 94.3721 29.5566 94.2432 29.5566C94.1826 29.5566 94.125 29.5625 94.0703 29.5742C94.0176 29.584 93.9707 29.5996 93.9297 29.6211C93.8887 29.6406 93.8564 29.667 93.833 29.7002C93.8096 29.7314 93.7979 29.7676 93.7979 29.8086C93.7979 29.8633 93.8154 29.9102 93.8506 29.9492C93.8857 29.9883 93.9316 30.0225 93.9883 30.0518C94.0449 30.0791 94.1074 30.1045 94.1758 30.1279C94.2461 30.1494 94.3154 30.1719 94.3838 30.1953C94.5068 30.2383 94.6182 30.2852 94.7178 30.3359C94.8174 30.3867 94.9023 30.4463 94.9727 30.5146C95.0449 30.583 95.0996 30.6631 95.1367 30.7549C95.1758 30.8467 95.1953 30.9561 95.1953 31.083C95.1953 31.2607 95.1562 31.4131 95.0781 31.54C95.002 31.665 94.8994 31.7676 94.7705 31.8477C94.6436 31.9258 94.4961 31.9824 94.3281 32.0176C94.1621 32.0547 93.9893 32.0732 93.8096 32.0732C93.4795 32.0732 93.1738 32.0225 92.8926 31.9209Z" fill="#FFFDFD"/>
<rect x="24.6667" y="42.3335" width="30" height="16.6667" rx="2" fill="#FECAE2"/>
<path d="M35.8096 55H34.0586L30.8843 50.1606C30.6981 49.8778 30.5692 49.6647 30.4976 49.5215H30.4761C30.5047 49.7936 30.519 50.209 30.519 50.7676V55H28.8809V47.2979H30.75L33.8062 51.9868C33.9458 52.1981 34.0747 52.4076 34.1929 52.6152H34.2144C34.1857 52.4362 34.1714 52.0835 34.1714 51.5571V47.2979H35.8096V55ZM44.3442 55H42.4536L41.9058 53.2866H39.1665L38.624 55H36.7441L39.5479 47.2979H41.605L44.3442 55ZM41.5083 51.9546L40.6812 49.3657C40.6203 49.1724 40.5773 48.9414 40.5522 48.6729H40.5093C40.4914 48.8984 40.4466 49.1222 40.375 49.3442L39.5371 51.9546H41.5083ZM44.9512 54.7046V52.9858C45.2627 53.2472 45.6011 53.4442 45.9663 53.5767C46.3315 53.7056 46.7004 53.77 47.0728 53.77C47.2912 53.77 47.481 53.7503 47.6421 53.7109C47.8068 53.6715 47.9429 53.6178 48.0503 53.5498C48.1613 53.4782 48.2437 53.3958 48.2974 53.3027C48.3511 53.2061 48.3779 53.1022 48.3779 52.9912C48.3779 52.8408 48.335 52.7065 48.249 52.5884C48.1631 52.4702 48.0449 52.361 47.8945 52.2607C47.7477 52.1605 47.5723 52.0638 47.3682 51.9707C47.1641 51.8776 46.9438 51.7827 46.7075 51.686C46.106 51.4354 45.6566 51.1292 45.3594 50.7676C45.0658 50.4059 44.9189 49.9691 44.9189 49.457C44.9189 49.056 44.9995 48.7122 45.1606 48.4258C45.3218 48.1357 45.5402 47.8976 45.8159 47.7114C46.0952 47.5252 46.4175 47.3892 46.7827 47.3032C47.1479 47.2137 47.5347 47.1689 47.9429 47.1689C48.3439 47.1689 48.6984 47.194 49.0063 47.2441C49.3179 47.2907 49.6043 47.3641 49.8657 47.4644V49.0703C49.7368 48.9808 49.5954 48.902 49.4414 48.834C49.291 48.766 49.1353 48.7104 48.9741 48.6675C48.813 48.6209 48.6519 48.5869 48.4907 48.5654C48.3332 48.5439 48.1828 48.5332 48.0396 48.5332C47.8426 48.5332 47.6636 48.5529 47.5024 48.5923C47.3413 48.6281 47.2052 48.68 47.0942 48.748C46.9832 48.8161 46.8973 48.8984 46.8364 48.9951C46.7756 49.0882 46.7451 49.1938 46.7451 49.312C46.7451 49.4409 46.7791 49.5573 46.8472 49.6611C46.9152 49.7614 47.0119 49.8581 47.1372 49.9512C47.2625 50.0407 47.4147 50.1302 47.5938 50.2197C47.7728 50.3057 47.9751 50.3952 48.2007 50.4883C48.5086 50.6172 48.7843 50.755 49.0278 50.9019C49.2749 51.0451 49.4862 51.208 49.6616 51.3906C49.8371 51.5732 49.9714 51.7827 50.0645 52.019C50.1576 52.2518 50.2041 52.5239 50.2041 52.8354C50.2041 53.2651 50.1217 53.6268 49.957 53.9204C49.7959 54.2104 49.5757 54.4468 49.2964 54.6294C49.0171 54.8084 48.6912 54.9373 48.3188 55.0161C47.95 55.0949 47.5597 55.1343 47.1479 55.1343C46.7254 55.1343 46.3226 55.0985 45.9395 55.0269C45.5599 54.9552 45.2305 54.8478 44.9512 54.7046Z" fill="#1F2755"/>
<defs>
<filter id="filter0_d_73_582" x="0.333374" y="22.5" width="42" height="52" filterUnits="userSpaceOnUse" color-interpolation-filters="sRGB">
<feFlood flood-opacity="0" result="BackgroundImageFix"/>
<feColorMatrix in="SourceAlpha" type="matrix" values="0 0 0 0 0 0 0 0 0 0 0 0 0 0 0 0 0 0 127 0" result="hardAlpha"/>
<feOffset dy="2"/>
<feGaussianBlur stdDeviation="3"/>
<feComposite in2="hardAlpha" operator="out"/>
<feColorMatrix type="matrix" values="0 0 0 0 0.317098 0 0 0 0 0.4 0 0 0 0 0.346114 0 0 0 0.1 0"/>
<feBlend mode="normal" in2="BackgroundImageFix" result="effect1_dropShadow_73_582"/>
<feBlend mode="normal" in="SourceGraphic" in2="effect1_dropShadow_73_582" result="shape"/>
</filter>
</defs>
</svg>
