<svg width="110" height="75" viewBox="0 0 110 75" fill="none" xmlns="http://www.w3.org/2000/svg">
<g filter="url(#filter0_d_73_222)">
<rect x="6.33331" y="26.5" width="30" height="40" rx="4" fill="#FFFDFD"/>
</g>
<circle cx="10.9166" cy="31.0835" r="1.25" fill="#FF78B0"/>
<circle cx="15.9166" cy="31.0835" r="1.25" fill="#FFC694"/>
<circle cx="20.9166" cy="31.0835" r="1.25" fill="#BCD0D1"/>
<rect x="9.66663" y="35.6667" width="23.3333" height="27.5" rx="3" fill="#E3D9C4"/>
<rect x="16.3333" y="0.666748" width="93.3333" height="66.6667" rx="4" fill="#6AA8AF"/>
<rect x="21.3334" y="5.66675" width="83.3333" height="56.6667" rx="4" fill="#FFFDFD"/>
<circle cx="25.9166" cy="10.2502" r="1.25" fill="#FF78B0"/>
<circle cx="30.9166" cy="10.2502" r="1.25" fill="#FFC694"/>
<circle cx="35.9166" cy="10.2502" r="1.25" fill="#BCD0D1"/>
<rect x="24.6666" y="14" width="76.6667" height="5" rx="2.5" fill="#6AA8AF"/>
<rect x="27.1666" y="15.6667" width="8.33333" height="1.66667" rx="0.833333" fill="white"/>
<rect x="37.1666" y="15.6667" width="4.16667" height="1.66667" rx="0.833333" fill="white"/>
<rect x="43" y="15.6667" width="6.66667" height="1.66667" rx="0.833333" fill="white"/>
<rect x="24.6666" y="22.3335" width="30" height="16.6667" rx="2" fill="#E3D9C4"/>
<circle cx="30.0833" cy="34.4168" r="1.58333" fill="#FFC971" stroke="#1F2755"/>
<path d="M30.9166 33.1666L35.9166 27.3333L43.8333 33.9999L48.8333 27.3333" stroke="#1F2755"/>
<circle cx="36.3334" cy="27.3335" r="2" fill="#72A6E0" stroke="#1F2755"/>
<circle cx="43.8334" cy="34.0002" r="2" fill="#FF8290" stroke="#1F2755"/>
<circle cx="48.8333" cy="27.3337" r="1.16667" fill="white" stroke="#1F2755"/>
<rect x="58" y="22.3335" width="43.3333" height="36.6667" rx="2" fill="#6AA8AF"/>
<path d="M68.8334 32.1667C68.8334 29.9576 70.6242 28.1667 72.8334 28.1667H84.5C87.8138 28.1667 90.5 30.853 90.5 34.1667V49.1667C90.5 51.3759 88.7092 53.1667 86.5 53.1667H72.8334C70.6242 53.1667 68.8334 51.3759 68.8334 49.1667V32.1667Z" fill="#7CC4CC"/>
<path d="M66.3334 32.1667C66.3334 29.9576 68.1242 28.1667 70.3334 28.1667H82C85.3138 28.1667 88 30.853 88 34.1667V49.1667C88 51.3759 86.2092 53.1667 84 53.1667H70.3334C68.1242 53.1667 66.3334 51.3759 66.3334 49.1667V32.1667Z" fill="#4E8C94"/>
<path d="M83 28.1667C85.7614 28.1667 88 30.4053 88 33.1667H83V28.1667Z" fill="#427B83"/>
<path d="M74.7373 32.2628C74.6983 32.2237 74.635 32.2237 74.5959 32.2628C74.5569 32.3018 74.5569 32.3652 74.5959 32.4042L74.7373 32.2628ZM80.5 38.1668L80.2011 37.0515L79.3846 37.868L80.5 38.1668ZM74.5959 32.4042L79.7929 37.6011L79.9343 37.4597L74.7373 32.2628L74.5959 32.4042Z" fill="white"/>
<path d="M77.1665 47.3333L78.2819 47.0344L77.4654 46.2179L77.1665 47.3333ZM82.0958 42.2625L77.7322 46.6261L77.8736 46.7676L82.2372 42.404L82.0958 42.2625Z" fill="white"/>
<path d="M81.3332 40.767C81.3884 40.767 81.4332 40.7222 81.4332 40.667C81.4332 40.6118 81.3884 40.567 81.3332 40.567V40.767ZM77.1665 40.667L78.1665 41.2443V40.0896L77.1665 40.667ZM81.3332 40.567H78.0665V40.767H81.3332V40.567Z" fill="white"/>
<path d="M74.6666 38.1667L75.244 37.1667L74.0893 37.1667L74.6666 38.1667ZM74.6666 33.1667L74.0893 34.1667L75.244 34.1667L74.6666 33.1667ZM74.7666 37.2667L74.7666 35.823L74.5666 35.823L74.5666 37.2667L74.7666 37.2667ZM74.7666 35.823L74.7666 34.0667L74.5666 34.0667L74.5666 35.823L74.7666 35.823Z" fill="white"/>
<path d="M74.6666 45.6667L75.244 44.6667L74.0893 44.6667L74.6666 45.6667ZM74.6666 40.6667L74.0893 41.6667L75.244 41.6667L74.6666 40.6667ZM74.7666 44.7667L74.7666 43.323L74.5666 43.323L74.5666 44.7667L74.7666 44.7667ZM74.7666 43.323L74.7666 41.5667L74.5666 41.5667L74.5666 43.323L74.7666 43.323Z" fill="white"/>
<path d="M75.4999 34.1002C75.5551 34.1002 75.5999 34.0555 75.5999 34.0002C75.5999 33.945 75.5551 33.9002 75.4999 33.9002V34.1002ZM70.4999 34.0002V33.9002H70.3999V34.0002H70.4999ZM70.4999 48.1669H70.3999V48.2669H70.4999V48.1669ZM72.1665 48.1669L71.1665 47.5896V48.7443L72.1665 48.1669ZM71.9582 48.0669C71.903 48.0669 71.8582 48.1117 71.8582 48.1669C71.8582 48.2221 71.903 48.2669 71.9582 48.2669V48.0669ZM71.5415 48.2669C71.5968 48.2669 71.6415 48.2221 71.6415 48.1669C71.6415 48.1117 71.5968 48.0669 71.5415 48.0669V48.2669ZM71.1249 48.0669C71.0696 48.0669 71.0249 48.1117 71.0249 48.1669C71.0249 48.2221 71.0696 48.2669 71.1249 48.2669V48.0669ZM70.7082 48.2669C70.7634 48.2669 70.8082 48.2221 70.8082 48.1669C70.8082 48.1117 70.7634 48.0669 70.7082 48.0669V48.2669ZM70.5999 47.9702C70.5999 47.9149 70.5551 47.8702 70.4999 47.8702C70.4446 47.8702 70.3999 47.9149 70.3999 47.9702H70.5999ZM70.3999 47.5766C70.3999 47.6319 70.4446 47.6766 70.4999 47.6766C70.5551 47.6766 70.5999 47.6319 70.5999 47.5766H70.3999ZM70.5999 47.1831C70.5999 47.1279 70.5551 47.0831 70.4999 47.0831C70.4446 47.0831 70.3999 47.1279 70.3999 47.1831H70.5999ZM70.3999 46.7896C70.3999 46.8448 70.4446 46.8896 70.4999 46.8896C70.5551 46.8896 70.5999 46.8448 70.5999 46.7896H70.3999ZM70.5999 46.3961C70.5999 46.3408 70.5551 46.2961 70.4999 46.2961C70.4446 46.2961 70.3999 46.3408 70.3999 46.3961H70.5999ZM70.3999 46.0026C70.3999 46.0578 70.4446 46.1026 70.4999 46.1026C70.5551 46.1026 70.5999 46.0578 70.5999 46.0026H70.3999ZM70.5999 45.609C70.5999 45.5538 70.5551 45.509 70.4999 45.509C70.4446 45.509 70.3999 45.5538 70.3999 45.609H70.5999ZM70.3999 45.2155C70.3999 45.2708 70.4446 45.3155 70.4999 45.3155C70.5551 45.3155 70.5999 45.2708 70.5999 45.2155H70.3999ZM70.5999 44.822C70.5999 44.7668 70.5551 44.722 70.4999 44.722C70.4446 44.722 70.3999 44.7668 70.3999 44.822H70.5999ZM70.3999 44.4285C70.3999 44.4837 70.4446 44.5285 70.4999 44.5285C70.5551 44.5285 70.5999 44.4837 70.5999 44.4285H70.3999ZM70.5999 44.035C70.5999 43.9797 70.5551 43.935 70.4999 43.935C70.4446 43.935 70.3999 43.9797 70.3999 44.035H70.5999ZM70.3999 43.6414C70.3999 43.6967 70.4446 43.7414 70.4999 43.7414C70.5551 43.7414 70.5999 43.6967 70.5999 43.6414H70.3999ZM70.5999 43.2479C70.5999 43.1927 70.5551 43.1479 70.4999 43.1479C70.4446 43.1479 70.3999 43.1927 70.3999 43.2479H70.5999ZM70.3999 42.8544C70.3999 42.9096 70.4446 42.9544 70.4999 42.9544C70.5551 42.9544 70.5999 42.9096 70.5999 42.8544H70.3999ZM70.5999 42.4609C70.5999 42.4057 70.5551 42.3609 70.4999 42.3609C70.4446 42.3609 70.3999 42.4057 70.3999 42.4609H70.5999ZM70.3999 42.0674C70.3999 42.1226 70.4446 42.1674 70.4999 42.1674C70.5551 42.1674 70.5999 42.1226 70.5999 42.0674H70.3999ZM70.5999 41.6739C70.5999 41.6186 70.5551 41.5739 70.4999 41.5739C70.4446 41.5739 70.3999 41.6186 70.3999 41.6739H70.5999ZM70.3999 41.2803C70.3999 41.3356 70.4446 41.3803 70.4999 41.3803C70.5551 41.3803 70.5999 41.3356 70.5999 41.2803H70.3999ZM70.5999 40.8868C70.5999 40.8316 70.5551 40.7868 70.4999 40.7868C70.4446 40.7868 70.3999 40.8316 70.3999 40.8868H70.5999ZM70.3999 40.4933C70.3999 40.5485 70.4446 40.5933 70.4999 40.5933C70.5551 40.5933 70.5999 40.5485 70.5999 40.4933H70.3999ZM70.5999 40.0998C70.5999 40.0446 70.5551 39.9998 70.4999 39.9998C70.4446 39.9998 70.3999 40.0446 70.3999 40.0998H70.5999ZM70.3999 39.7063C70.3999 39.7615 70.4446 39.8063 70.4999 39.8063C70.5551 39.8063 70.5999 39.7615 70.5999 39.7063H70.3999ZM70.5999 39.3127C70.5999 39.2575 70.5551 39.2127 70.4999 39.2127C70.4446 39.2127 70.3999 39.2575 70.3999 39.3127H70.5999ZM70.3999 38.9192C70.3999 38.9745 70.4446 39.0192 70.4999 39.0192C70.5551 39.0192 70.5999 38.9745 70.5999 38.9192H70.3999ZM70.5999 38.5257C70.5999 38.4705 70.5551 38.4257 70.4999 38.4257C70.4446 38.4257 70.3999 38.4705 70.3999 38.5257H70.5999ZM70.3999 38.1322C70.3999 38.1874 70.4446 38.2322 70.4999 38.2322C70.5551 38.2322 70.5999 38.1874 70.5999 38.1322H70.3999ZM70.5999 37.7387C70.5999 37.6834 70.5551 37.6387 70.4999 37.6387C70.4446 37.6387 70.3999 37.6834 70.3999 37.7387H70.5999ZM70.3999 37.3452C70.3999 37.4004 70.4446 37.4452 70.4999 37.4452C70.5551 37.4452 70.5999 37.4004 70.5999 37.3452H70.3999ZM70.5999 36.9516C70.5999 36.8964 70.5551 36.8516 70.4999 36.8516C70.4446 36.8516 70.3999 36.8964 70.3999 36.9516H70.5999ZM70.3999 36.5581C70.3999 36.6133 70.4446 36.6581 70.4999 36.6581C70.5551 36.6581 70.5999 36.6133 70.5999 36.5581H70.3999ZM70.5999 36.1646C70.5999 36.1094 70.5551 36.0646 70.4999 36.0646C70.4446 36.0646 70.3999 36.1094 70.3999 36.1646H70.5999ZM70.3999 35.7711C70.3999 35.8263 70.4446 35.8711 70.4999 35.8711C70.5551 35.8711 70.5999 35.8263 70.5999 35.7711H70.3999ZM70.5999 35.3776C70.5999 35.3223 70.5551 35.2776 70.4999 35.2776C70.4446 35.2776 70.3999 35.3223 70.3999 35.3776H70.5999ZM70.3999 34.984C70.3999 35.0393 70.4446 35.084 70.4999 35.084C70.5551 35.084 70.5999 35.0393 70.5999 34.984H70.3999ZM70.5999 34.5905C70.5999 34.5353 70.5551 34.4905 70.4999 34.4905C70.4446 34.4905 70.3999 34.5353 70.3999 34.5905H70.5999ZM70.3999 34.197C70.3999 34.2522 70.4446 34.297 70.4999 34.297C70.5551 34.297 70.5999 34.2522 70.5999 34.197H70.3999ZM70.7082 34.1002C70.7634 34.1002 70.8082 34.0555 70.8082 34.0002C70.8082 33.945 70.7634 33.9002 70.7082 33.9002V34.1002ZM71.1249 33.9002C71.0696 33.9002 71.0249 33.945 71.0249 34.0002C71.0249 34.0555 71.0696 34.1002 71.1249 34.1002V33.9002ZM71.5415 34.1002C71.5968 34.1002 71.6415 34.0555 71.6415 34.0002C71.6415 33.945 71.5968 33.9002 71.5415 33.9002V34.1002ZM71.9582 33.9002C71.903 33.9002 71.8582 33.945 71.8582 34.0002C71.8582 34.0555 71.903 34.1002 71.9582 34.1002V33.9002ZM72.3749 34.1002C72.4301 34.1002 72.4749 34.0555 72.4749 34.0002C72.4749 33.945 72.4301 33.9002 72.3749 33.9002V34.1002ZM72.7915 33.9002C72.7363 33.9002 72.6915 33.945 72.6915 34.0002C72.6915 34.0555 72.7363 34.1002 72.7915 34.1002V33.9002ZM73.2082 34.1002C73.2634 34.1002 73.3082 34.0555 73.3082 34.0002C73.3082 33.945 73.2634 33.9002 73.2082 33.9002V34.1002ZM73.6249 33.9002C73.5696 33.9002 73.5249 33.945 73.5249 34.0002C73.5249 34.0555 73.5696 34.1002 73.6249 34.1002V33.9002ZM74.0415 34.1002C74.0968 34.1002 74.1415 34.0555 74.1415 34.0002C74.1415 33.945 74.0968 33.9002 74.0415 33.9002V34.1002ZM74.4582 33.9002C74.403 33.9002 74.3582 33.945 74.3582 34.0002C74.3582 34.0555 74.403 34.1002 74.4582 34.1002V33.9002ZM74.8749 34.1002C74.9301 34.1002 74.9749 34.0555 74.9749 34.0002C74.9749 33.945 74.9301 33.9002 74.8749 33.9002V34.1002ZM75.2915 33.9002C75.2363 33.9002 75.1915 33.945 75.1915 34.0002C75.1915 34.0555 75.2363 34.1002 75.2915 34.1002V33.9002ZM71.5415 48.0669H71.1249V48.2669H71.5415V48.0669ZM70.7082 48.0669H70.4999V48.2669H70.7082V48.0669ZM70.5999 48.1669V47.9702H70.3999V48.1669H70.5999ZM70.5999 47.5766V47.1831H70.3999V47.5766H70.5999ZM70.5999 46.7896V46.3961H70.3999V46.7896H70.5999ZM70.5999 46.0026V45.609H70.3999V46.0026H70.5999ZM70.5999 45.2155V44.822H70.3999V45.2155H70.5999ZM70.5999 44.4285V44.035H70.3999V44.4285H70.5999ZM70.5999 43.6414V43.2479H70.3999V43.6414H70.5999ZM70.5999 42.8544V42.4609H70.3999V42.8544H70.5999ZM70.5999 42.0674V41.6739H70.3999V42.0674H70.5999ZM70.5999 41.2803V40.8868H70.3999V41.2803H70.5999ZM70.5999 40.4933V40.0998H70.3999V40.4933H70.5999ZM70.5999 39.7063V39.3127H70.3999V39.7063H70.5999ZM70.5999 38.9192V38.5257H70.3999V38.9192H70.5999ZM70.5999 38.1322V37.7387H70.3999V38.1322H70.5999ZM70.5999 37.3452V36.9516H70.3999V37.3452H70.5999ZM70.5999 36.5581V36.1646H70.3999V36.5581H70.5999ZM70.5999 35.7711V35.3776H70.3999V35.7711H70.5999ZM70.5999 34.984V34.5905H70.3999V34.984H70.5999ZM70.5999 34.197V34.0002H70.3999V34.197H70.5999ZM70.4999 34.1002H70.7082V33.9002H70.4999V34.1002ZM71.1249 34.1002H71.5415V33.9002H71.1249V34.1002ZM71.9582 34.1002H72.3749V33.9002H71.9582V34.1002ZM72.7915 34.1002H73.2082V33.9002H72.7915V34.1002ZM73.6249 34.1002H74.0415V33.9002H73.6249V34.1002ZM74.4582 34.1002H74.8749V33.9002H74.4582V34.1002ZM75.2915 34.1002H75.4999V33.9002H75.2915V34.1002Z" fill="white"/>
<circle cx="74.6666" cy="33.1667" r="2.5" fill="white"/>
<circle cx="74.6666" cy="40.6667" r="2.5" fill="#E0FFEE"/>
<circle cx="82.1666" cy="40.6667" r="2.5" fill="#B3F6FF"/>
<circle cx="74.6666" cy="48.1667" r="2.5" fill="#D0FFFC"/>
<g filter="url(#filter1_b_73_222)">
<rect x="80.5" y="41.5" width="14.0625" height="8.4375" rx="2" fill="#BBF7FF" fill-opacity="0.44"/>
</g>
<g filter="url(#filter2_b_73_222)">
<rect x="80.6" y="41.6" width="13.8625" height="8.2375" rx="1.9" stroke="url(#paint0_linear_73_222)" stroke-width="0.2"/>
</g>
<path d="M85.8271 47.4375H85.0483V45.3428C85.0483 45.1165 85.0581 44.8667 85.0776 44.5933H85.0581C85.0174 44.8081 84.9808 44.9627 84.9482 45.0571L84.1279 47.4375H83.4834L82.6484 45.0815C82.6257 45.0181 82.589 44.8553 82.5386 44.5933H82.5166C82.5378 44.9383 82.5483 45.241 82.5483 45.5015V47.4375H81.8379V43.9365H82.9927L83.708 46.0117C83.765 46.1777 83.8065 46.3446 83.8325 46.5122H83.8472C83.8911 46.3185 83.9375 46.1501 83.9863 46.0068L84.7017 43.9365H85.8271V47.4375ZM88.9229 47.4375H88.1538V47.0566H88.1416C87.9512 47.3512 87.6965 47.4985 87.3774 47.4985C86.798 47.4985 86.5083 47.1478 86.5083 46.4463V44.9375H87.2773V46.3779C87.2773 46.7311 87.4173 46.9077 87.6973 46.9077C87.8356 46.9077 87.9463 46.8597 88.0293 46.7637C88.1123 46.666 88.1538 46.5342 88.1538 46.3682V44.9375H88.9229V47.4375ZM90.3462 47.4375H89.5747V43.7363H90.3462V47.4375ZM92.5068 47.4082C92.3929 47.4684 92.2212 47.4985 91.9917 47.4985C91.4481 47.4985 91.1763 47.2161 91.1763 46.6514V45.5063H90.771V44.9375H91.1763V44.3979L91.9453 44.1782V44.9375H92.5068V45.5063H91.9453V46.5171C91.9453 46.7775 92.0487 46.9077 92.2554 46.9077C92.3368 46.9077 92.4206 46.8841 92.5068 46.8369V47.4082ZM93.3345 44.542C93.2043 44.542 93.0977 44.5037 93.0146 44.4272C92.9316 44.3491 92.8901 44.2539 92.8901 44.1416C92.8901 44.026 92.9316 43.9316 93.0146 43.8584C93.0977 43.7852 93.2043 43.7485 93.3345 43.7485C93.4663 43.7485 93.5729 43.7852 93.6543 43.8584C93.7373 43.9316 93.7788 44.026 93.7788 44.1416C93.7788 44.2588 93.7373 44.3548 93.6543 44.4297C93.5729 44.5046 93.4663 44.542 93.3345 44.542ZM93.7153 47.4375H92.9438V44.9375H93.7153V47.4375Z" fill="#427B83"/>
<rect x="24.6667" y="42.3335" width="30" height="16.6667" rx="2" fill="#FECAE2"/>
<path d="M36.7472 55.3752H34.9962L31.8219 50.5359C31.6357 50.253 31.5068 50.04 31.4352 49.8967H31.4137C31.4423 50.1689 31.4567 50.5842 31.4567 51.1428V55.3752H29.8185V47.6731H31.6876L34.7438 52.3621C34.8834 52.5733 35.0123 52.7828 35.1305 52.9905H35.152C35.1233 52.8114 35.109 52.4587 35.109 51.9324V47.6731H36.7472V55.3752ZM45.2819 55.3752H43.3912L42.8434 53.6619H40.1041L39.5616 55.3752H37.6818L40.4855 47.6731H42.5426L45.2819 55.3752ZM42.4459 52.3298L41.6188 49.741C41.5579 49.5476 41.5149 49.3167 41.4899 49.0481H41.4469C41.429 49.2737 41.3842 49.4975 41.3126 49.7195L40.4747 52.3298H42.4459ZM45.8888 55.0798V53.3611C46.2003 53.6225 46.5387 53.8194 46.9039 53.9519C47.2692 54.0808 47.638 54.1453 48.0104 54.1453C48.2288 54.1453 48.4186 54.1256 48.5797 54.0862C48.7444 54.0468 48.8805 53.9931 48.9879 53.925C49.0989 53.8534 49.1813 53.7711 49.235 53.678C49.2887 53.5813 49.3156 53.4775 49.3156 53.3665C49.3156 53.2161 49.2726 53.0818 49.1866 52.9636C49.1007 52.8455 48.9825 52.7362 48.8322 52.636C48.6853 52.5357 48.5099 52.439 48.3058 52.3459C48.1017 52.2528 47.8815 52.158 47.6451 52.0613C47.0436 51.8106 46.5942 51.5045 46.297 51.1428C46.0034 50.7812 45.8566 50.3443 45.8566 49.8323C45.8566 49.4312 45.9371 49.0875 46.0983 48.801C46.2594 48.511 46.4778 48.2729 46.7535 48.0867C47.0328 47.9005 47.3551 47.7644 47.7203 47.6785C48.0856 47.5889 48.4723 47.5442 48.8805 47.5442C49.2815 47.5442 49.636 47.5693 49.944 47.6194C50.2555 47.6659 50.542 47.7393 50.8033 47.8396V49.4456C50.6744 49.356 50.533 49.2773 50.379 49.2092C50.2286 49.1412 50.0729 49.0857 49.9117 49.0427C49.7506 48.9962 49.5895 48.9622 49.4283 48.9407C49.2708 48.9192 49.1204 48.9084 48.9772 48.9084C48.7802 48.9084 48.6012 48.9281 48.4401 48.9675C48.2789 49.0033 48.1429 49.0553 48.0319 49.1233C47.9209 49.1913 47.8349 49.2737 47.774 49.3704C47.7132 49.4635 47.6827 49.5691 47.6827 49.6873C47.6827 49.8162 47.7168 49.9325 47.7848 50.0364C47.8528 50.1366 47.9495 50.2333 48.0748 50.3264C48.2002 50.4159 48.3523 50.5055 48.5314 50.595C48.7104 50.6809 48.9127 50.7704 49.1383 50.8635C49.4462 50.9924 49.722 51.1303 49.9655 51.2771C50.2125 51.4203 50.4238 51.5833 50.5992 51.7659C50.7747 51.9485 50.909 52.158 51.0021 52.3943C51.0952 52.627 51.1417 52.8992 51.1417 53.2107C51.1417 53.6404 51.0594 54.002 50.8947 54.2957C50.7335 54.5857 50.5133 54.822 50.234 55.0046C49.9547 55.1837 49.6289 55.3126 49.2565 55.3914C48.8877 55.4701 48.4974 55.5095 48.0856 55.5095C47.663 55.5095 47.2602 55.4737 46.8771 55.4021C46.4975 55.3305 46.1681 55.2231 45.8888 55.0798Z" fill="#1F2755"/>
<defs>
<filter id="filter0_d_73_222" x="0.333313" y="22.5" width="41.9999" height="52" filterUnits="userSpaceOnUse" color-interpolation-filters="sRGB">
<feFlood flood-opacity="0" result="BackgroundImageFix"/>
<feColorMatrix in="SourceAlpha" type="matrix" values="0 0 0 0 0 0 0 0 0 0 0 0 0 0 0 0 0 0 127 0" result="hardAlpha"/>
<feOffset dy="2"/>
<feGaussianBlur stdDeviation="3"/>
<feComposite in2="hardAlpha" operator="out"/>
<feColorMatrix type="matrix" values="0 0 0 0 0.317098 0 0 0 0 0.4 0 0 0 0 0.346114 0 0 0 0.1 0"/>
<feBlend mode="normal" in2="BackgroundImageFix" result="effect1_dropShadow_73_222"/>
<feBlend mode="normal" in="SourceGraphic" in2="effect1_dropShadow_73_222" result="shape"/>
</filter>
<filter id="filter1_b_73_222" x="76.5" y="37.5" width="22.0625" height="16.4375" filterUnits="userSpaceOnUse" color-interpolation-filters="sRGB">
<feFlood flood-opacity="0" result="BackgroundImageFix"/>
<feGaussianBlur in="BackgroundImage" stdDeviation="2"/>
<feComposite in2="SourceAlpha" operator="in" result="effect1_backgroundBlur_73_222"/>
<feBlend mode="normal" in="SourceGraphic" in2="effect1_backgroundBlur_73_222" result="shape"/>
</filter>
<filter id="filter2_b_73_222" x="72.5" y="33.5" width="30.0625" height="24.4375" filterUnits="userSpaceOnUse" color-interpolation-filters="sRGB">
<feFlood flood-opacity="0" result="BackgroundImageFix"/>
<feGaussianBlur in="BackgroundImage" stdDeviation="4"/>
<feComposite in2="SourceAlpha" operator="in" result="effect1_backgroundBlur_73_222"/>
<feBlend mode="normal" in="SourceGraphic" in2="effect1_backgroundBlur_73_222" result="shape"/>
</filter>
<linearGradient id="paint0_linear_73_222" x1="81.5045" y1="42.3437" x2="93.4429" y2="49.9966" gradientUnits="userSpaceOnUse">
<stop stop-color="#EBF7F4" stop-opacity="0.6"/>
<stop offset="1" stop-color="#ADDADD" stop-opacity="0.12"/>
</linearGradient>
</defs>
</svg>
