<svg width="32" height="30" viewBox="0 0 32 30" fill="none" xmlns="http://www.w3.org/2000/svg">
<path d="M0 4C0 1.79086 1.79086 0 4 0H20C23.3137 0 26 2.68629 26 6V26C26 28.2091 24.2091 30 22 30H4C1.79086 30 0 28.2091 0 26V4Z" fill="url(#paint0_linear_12_283)"/>
<path d="M20 0V0C23.3137 0 26 2.68629 26 6V6H20V0Z" fill="url(#paint1_linear_12_283)"/>
<path d="M10.0707 4.92929C10.0317 4.89024 9.96834 4.89024 9.92929 4.92929C9.89024 4.96834 9.89024 5.03166 9.92929 5.07071L10.0707 4.92929ZM17 12L16.7011 10.8846L15.8846 11.7011L17 12ZM9.92929 5.07071L16.2929 11.4343L16.4343 11.2929L10.0707 4.92929L9.92929 5.07071Z" fill="white"/>
<path d="M13 23L14.1154 22.7011L13.2989 21.8846L13 23ZM18.9293 16.9293L13.5657 22.2929L13.7071 22.4343L19.0707 17.0707L18.9293 16.9293Z" fill="white"/>
<path d="M18 15.1C18.0552 15.1 18.1 15.0552 18.1 15C18.1 14.9448 18.0552 14.9 18 14.9V15.1ZM13 15L14 15.5774V14.4226L13 15ZM18 14.9L13.9 14.9V15.1L18 15.1V14.9Z" fill="white"/>
<path d="M10 12L10.5774 11L9.42265 11L10 12ZM10 6L9.42265 7L10.5773 7L10 6ZM10.1 11.1L10.1 9.1875L9.9 9.1875L9.9 11.1L10.1 11.1ZM10.1 9.1875L10.1 6.9L9.9 6.9L9.9 9.1875L10.1 9.1875Z" fill="white"/>
<path d="M10 21L10.5774 20L9.42265 20L10 21ZM10 15L9.42265 16L10.5773 16L10 15ZM10.1 20.1L10.1 18.1875L9.9 18.1875L9.9 20.1L10.1 20.1ZM10.1 18.1875L10.1 15.9L9.9 15.9L9.9 18.1875L10.1 18.1875Z" fill="white"/>
<path d="M11 7.1C11.0552 7.1 11.1 7.05523 11.1 7C11.1 6.94477 11.0552 6.9 11 6.9V7.1ZM5 7V6.9H4.9V7H5ZM5 24H4.9V24.1H5V24ZM7 24L6 23.4226V24.5774L7 24ZM6.83333 23.9C6.7781 23.9 6.73333 23.9448 6.73333 24C6.73333 24.0552 6.7781 24.1 6.83333 24.1V23.9ZM6.5 24.1C6.55523 24.1 6.6 24.0552 6.6 24C6.6 23.9448 6.55523 23.9 6.5 23.9V24.1ZM6.16667 23.9C6.11144 23.9 6.06667 23.9448 6.06667 24C6.06667 24.0552 6.11144 24.1 6.16667 24.1V23.9ZM5.83333 24.1C5.88856 24.1 5.93333 24.0552 5.93333 24C5.93333 23.9448 5.88856 23.9 5.83333 23.9V24.1ZM5.5 23.9C5.44477 23.9 5.4 23.9448 5.4 24C5.4 24.0552 5.44477 24.1 5.5 24.1V23.9ZM5.16667 24.1C5.22189 24.1 5.26667 24.0552 5.26667 24C5.26667 23.9448 5.22189 23.9 5.16667 23.9V24.1ZM5.1 23.7976C5.1 23.7424 5.05523 23.6976 5 23.6976C4.94477 23.6976 4.9 23.7424 4.9 23.7976H5.1ZM4.9 23.3929C4.9 23.4481 4.94477 23.4929 5 23.4929C5.05523 23.4929 5.1 23.4481 5.1 23.3929H4.9ZM5.1 22.9881C5.1 22.9329 5.05523 22.8881 5 22.8881C4.94477 22.8881 4.9 22.9329 4.9 22.9881H5.1ZM4.9 22.5833C4.9 22.6386 4.94477 22.6833 5 22.6833C5.05523 22.6833 5.1 22.6386 5.1 22.5833H4.9ZM5.1 22.1786C5.1 22.1233 5.05523 22.0786 5 22.0786C4.94477 22.0786 4.9 22.1233 4.9 22.1786H5.1ZM4.9 21.7738C4.9 21.829 4.94477 21.8738 5 21.8738C5.05523 21.8738 5.1 21.829 5.1 21.7738H4.9ZM5.1 21.369C5.1 21.3138 5.05523 21.269 5 21.269C4.94477 21.269 4.9 21.3138 4.9 21.369H5.1ZM4.9 20.9643C4.9 21.0195 4.94477 21.0643 5 21.0643C5.05523 21.0643 5.1 21.0195 5.1 20.9643H4.9ZM5.1 20.5595C5.1 20.5043 5.05523 20.4595 5 20.4595C4.94477 20.4595 4.9 20.5043 4.9 20.5595H5.1ZM4.9 20.1548C4.9 20.21 4.94477 20.2548 5 20.2548C5.05523 20.2548 5.1 20.21 5.1 20.1548H4.9ZM5.1 19.75C5.1 19.6948 5.05523 19.65 5 19.65C4.94477 19.65 4.9 19.6948 4.9 19.75H5.1ZM4.9 19.3452C4.9 19.4005 4.94477 19.4452 5 19.4452C5.05523 19.4452 5.1 19.4005 5.1 19.3452H4.9ZM5.1 18.9405C5.1 18.8852 5.05523 18.8405 5 18.8405C4.94477 18.8405 4.9 18.8852 4.9 18.9405H5.1ZM4.9 18.5357C4.9 18.5909 4.94477 18.6357 5 18.6357C5.05523 18.6357 5.1 18.5909 5.1 18.5357H4.9ZM5.1 18.131C5.1 18.0757 5.05523 18.031 5 18.031C4.94477 18.031 4.9 18.0757 4.9 18.131H5.1ZM4.9 17.7262C4.9 17.7814 4.94477 17.8262 5 17.8262C5.05523 17.8262 5.1 17.7814 5.1 17.7262H4.9ZM5.1 17.3214C5.1 17.2662 5.05523 17.2214 5 17.2214C4.94477 17.2214 4.9 17.2662 4.9 17.3214H5.1ZM4.9 16.9167C4.9 16.9719 4.94477 17.0167 5 17.0167C5.05523 17.0167 5.1 16.9719 5.1 16.9167H4.9ZM5.1 16.5119C5.1 16.4567 5.05523 16.4119 5 16.4119C4.94477 16.4119 4.9 16.4567 4.9 16.5119H5.1ZM4.9 16.1071C4.9 16.1624 4.94477 16.2071 5 16.2071C5.05523 16.2071 5.1 16.1624 5.1 16.1071H4.9ZM5.1 15.7024C5.1 15.6472 5.05523 15.6024 5 15.6024C4.94477 15.6024 4.9 15.6472 4.9 15.7024H5.1ZM4.9 15.2976C4.9 15.3528 4.94477 15.3976 5 15.3976C5.05523 15.3976 5.1 15.3528 5.1 15.2976H4.9ZM5.1 14.8929C5.1 14.8376 5.05523 14.7929 5 14.7929C4.94477 14.7929 4.9 14.8376 4.9 14.8929H5.1ZM4.9 14.4881C4.9 14.5433 4.94477 14.5881 5 14.5881C5.05523 14.5881 5.1 14.5433 5.1 14.4881H4.9ZM5.1 14.0833C5.1 14.0281 5.05523 13.9833 5 13.9833C4.94477 13.9833 4.9 14.0281 4.9 14.0833H5.1ZM4.9 13.6786C4.9 13.7338 4.94477 13.7786 5 13.7786C5.05523 13.7786 5.1 13.7338 5.1 13.6786H4.9ZM5.1 13.2738C5.1 13.2186 5.05523 13.1738 5 13.1738C4.94477 13.1738 4.9 13.2186 4.9 13.2738H5.1ZM4.9 12.869C4.9 12.9243 4.94477 12.969 5 12.969C5.05523 12.969 5.1 12.9243 5.1 12.869H4.9ZM5.1 12.4643C5.1 12.4091 5.05523 12.3643 5 12.3643C4.94477 12.3643 4.9 12.4091 4.9 12.4643H5.1ZM4.9 12.0595C4.9 12.1148 4.94477 12.1595 5 12.1595C5.05523 12.1595 5.1 12.1148 5.1 12.0595H4.9ZM5.1 11.6548C5.1 11.5995 5.05523 11.5548 5 11.5548C4.94477 11.5548 4.9 11.5995 4.9 11.6548H5.1ZM4.9 11.25C4.9 11.3052 4.94477 11.35 5 11.35C5.05523 11.35 5.1 11.3052 5.1 11.25H4.9ZM5.1 10.8452C5.1 10.79 5.05523 10.7452 5 10.7452C4.94477 10.7452 4.9 10.79 4.9 10.8452H5.1ZM4.9 10.4405C4.9 10.4957 4.94477 10.5405 5 10.5405C5.05523 10.5405 5.1 10.4957 5.1 10.4405H4.9ZM5.1 10.0357C5.1 9.98048 5.05523 9.93571 5 9.93571C4.94477 9.93571 4.9 9.98048 4.9 10.0357H5.1ZM4.9 9.63095C4.9 9.68618 4.94477 9.73095 5 9.73095C5.05523 9.73095 5.1 9.68618 5.1 9.63095H4.9ZM5.1 9.22619C5.1 9.17096 5.05523 9.12619 5 9.12619C4.94477 9.12619 4.9 9.17096 4.9 9.22619H5.1ZM4.9 8.82142C4.9 8.87665 4.94477 8.92142 5 8.92142C5.05523 8.92142 5.1 8.87665 5.1 8.82142H4.9ZM5.1 8.41666C5.1 8.36143 5.05523 8.31666 5 8.31666C4.94477 8.31666 4.9 8.36143 4.9 8.41666H5.1ZM4.9 8.0119C4.9 8.06713 4.94477 8.1119 5 8.1119C5.05523 8.1119 5.1 8.06713 5.1 8.0119H4.9ZM5.1 7.60714C5.1 7.55191 5.05523 7.50714 5 7.50714C4.94477 7.50714 4.9 7.55191 4.9 7.60714H5.1ZM4.9 7.20238C4.9 7.2576 4.94477 7.30238 5 7.30238C5.05523 7.30238 5.1 7.2576 5.1 7.20238H4.9ZM5.1875 7.1C5.24273 7.1 5.2875 7.05523 5.2875 7C5.2875 6.94477 5.24273 6.9 5.1875 6.9V7.1ZM5.5625 6.9C5.50727 6.9 5.4625 6.94477 5.4625 7C5.4625 7.05523 5.50727 7.1 5.5625 7.1V6.9ZM5.9375 7.1C5.99273 7.1 6.0375 7.05523 6.0375 7C6.0375 6.94477 5.99273 6.9 5.9375 6.9V7.1ZM6.3125 6.9C6.25727 6.9 6.2125 6.94477 6.2125 7C6.2125 7.05523 6.25727 7.1 6.3125 7.1V6.9ZM6.6875 7.1C6.74273 7.1 6.7875 7.05523 6.7875 7C6.7875 6.94477 6.74273 6.9 6.6875 6.9V7.1ZM7.0625 6.9C7.00727 6.9 6.9625 6.94477 6.9625 7C6.9625 7.05523 7.00727 7.1 7.0625 7.1V6.9ZM7.4375 7.1C7.49273 7.1 7.5375 7.05523 7.5375 7C7.5375 6.94477 7.49273 6.9 7.4375 6.9V7.1ZM7.8125 6.9C7.75727 6.9 7.7125 6.94477 7.7125 7C7.7125 7.05523 7.75727 7.1 7.8125 7.1V6.9ZM8.1875 7.1C8.24273 7.1 8.2875 7.05523 8.2875 7C8.2875 6.94477 8.24273 6.9 8.1875 6.9V7.1ZM8.5625 6.9C8.50727 6.9 8.4625 6.94477 8.4625 7C8.4625 7.05523 8.50727 7.1 8.5625 7.1V6.9ZM8.9375 7.1C8.99273 7.1 9.0375 7.05523 9.0375 7C9.0375 6.94477 8.99273 6.9 8.9375 6.9V7.1ZM9.3125 6.9C9.25727 6.9 9.2125 6.94477 9.2125 7C9.2125 7.05523 9.25727 7.1 9.3125 7.1V6.9ZM9.6875 7.1C9.74273 7.1 9.7875 7.05523 9.7875 7C9.7875 6.94477 9.74273 6.9 9.6875 6.9V7.1ZM10.0625 6.9C10.0073 6.9 9.9625 6.94477 9.9625 7C9.9625 7.05523 10.0073 7.1 10.0625 7.1V6.9ZM10.4375 7.1C10.4927 7.1 10.5375 7.05523 10.5375 7C10.5375 6.94477 10.4927 6.9 10.4375 6.9V7.1ZM10.8125 6.9C10.7573 6.9 10.7125 6.94477 10.7125 7C10.7125 7.05523 10.7573 7.1 10.8125 7.1V6.9ZM6.5 23.9H6.16667V24.1H6.5V23.9ZM5.83333 23.9H5.5V24.1H5.83333V23.9ZM5.16667 23.9H5V24.1H5.16667V23.9ZM5.1 24V23.7976H4.9V24H5.1ZM5.1 23.3929V22.9881H4.9V23.3929H5.1ZM5.1 22.5833V22.1786H4.9V22.5833H5.1ZM5.1 21.7738V21.369H4.9V21.7738H5.1ZM5.1 20.9643V20.5595H4.9V20.9643H5.1ZM5.1 20.1548V19.75H4.9V20.1548H5.1ZM5.1 19.3452V18.9405H4.9V19.3452H5.1ZM5.1 18.5357V18.131H4.9V18.5357H5.1ZM5.1 17.7262V17.3214H4.9V17.7262H5.1ZM5.1 16.9167V16.5119H4.9V16.9167H5.1ZM5.1 16.1071V15.7024H4.9V16.1071H5.1ZM5.1 15.2976V14.8929H4.9V15.2976H5.1ZM5.1 14.4881V14.0833H4.9V14.4881H5.1ZM5.1 13.6786V13.2738H4.9V13.6786H5.1ZM5.1 12.869V12.4643H4.9V12.869H5.1ZM5.1 12.0595V11.6548H4.9V12.0595H5.1ZM5.1 11.25V10.8452H4.9V11.25H5.1ZM5.1 10.4405V10.0357H4.9V10.4405H5.1ZM5.1 9.63095V9.22619H4.9V9.63095H5.1ZM5.1 8.82142V8.41666H4.9V8.82142H5.1ZM5.1 8.0119V7.60714H4.9V8.0119H5.1ZM5.1 7.20238V7H4.9V7.20238H5.1ZM5 7.1H5.1875V6.9H5V7.1ZM5.5625 7.1H5.9375V6.9H5.5625V7.1ZM6.3125 7.1H6.6875V6.9H6.3125V7.1ZM7.0625 7.1H7.4375V6.9H7.0625V7.1ZM7.8125 7.1H8.1875V6.9H7.8125V7.1ZM8.5625 7.1H8.9375V6.9H8.5625V7.1ZM9.3125 7.1H9.6875V6.9H9.3125V7.1ZM10.0625 7.1H10.4375V6.9H10.0625V7.1ZM10.8125 7.1H11V6.9H10.8125V7.1Z" fill="white"/>
<circle cx="10" cy="6" r="3" fill="white"/>
<circle cx="10" cy="15" r="3" fill="#FFF2E6"/>
<circle cx="19" cy="15" r="3" fill="#FFDEBF"/>
<circle cx="10" cy="24" r="3" fill="#FFEBB7"/>
<g filter="url(#filter0_b_12_283)">
<rect x="18" y="16" width="14" height="10" rx="2" fill="#FFE4BB" fill-opacity="0.44"/>
</g>
<g filter="url(#filter1_b_12_283)">
<rect x="18.1" y="16.1" width="13.8" height="9.8" rx="1.9" stroke="url(#paint2_linear_12_283)" stroke-width="0.2"/>
</g>
<path d="M22.7905 23L21.5552 21.3105C21.4575 21.1771 21.3778 21.0566 21.3159 20.9492H21.3062C21.3159 21.1217 21.3208 21.3154 21.3208 21.5303V23H20.3442V19.499H21.3403L22.5244 21.1055C22.5391 21.1266 22.557 21.1519 22.5781 21.1812C22.5993 21.2104 22.6204 21.2406 22.6416 21.2715C22.6628 21.3024 22.6823 21.3325 22.7002 21.3618C22.7197 21.3911 22.7344 21.4172 22.7441 21.4399H22.7539C22.7441 21.3683 22.7393 21.2446 22.7393 21.0688V19.499H23.7158V23H22.7905ZM26.6016 23L26.4478 22.3555H25.4028L25.2368 23H24.0967L25.3027 19.499H26.6113L27.7466 23H26.6016ZM25.9375 20.2607H25.9131C25.9098 20.2998 25.8984 20.3641 25.8789 20.4536C25.8594 20.5431 25.7609 20.9272 25.5835 21.606H26.2524L26.0083 20.6538C25.9741 20.5138 25.9505 20.3828 25.9375 20.2607ZM30.5884 21.9404C30.5884 22.1732 30.5257 22.3758 30.4004 22.5483C30.2767 22.7209 30.1025 22.8494 29.8779 22.9341C29.6533 23.0187 29.3831 23.061 29.0674 23.061C28.7012 23.061 28.3659 22.9992 28.0615 22.8755V21.916C28.208 22.0234 28.37 22.1105 28.5474 22.1772C28.7248 22.2424 28.89 22.2749 29.043 22.2749C29.1585 22.2749 29.248 22.2546 29.3115 22.2139C29.375 22.1715 29.4067 22.1105 29.4067 22.0308C29.4067 21.9738 29.3905 21.9242 29.3579 21.8818C29.327 21.8379 29.279 21.7972 29.2139 21.7598C29.1504 21.7223 29.0316 21.6711 28.8574 21.606C28.2943 21.3895 28.0127 21.0396 28.0127 20.5562C28.0127 20.2176 28.1413 19.9474 28.3984 19.7456C28.6556 19.5422 29.0007 19.4404 29.4336 19.4404C29.5557 19.4404 29.668 19.4453 29.7705 19.4551C29.873 19.4648 29.9658 19.4771 30.0488 19.4917C30.1335 19.5063 30.2515 19.534 30.4028 19.5747V20.4658C30.1082 20.3047 29.8185 20.2241 29.5337 20.2241C29.4165 20.2241 29.3221 20.2461 29.2505 20.29C29.1789 20.334 29.1431 20.3942 29.1431 20.4707C29.1431 20.5439 29.1715 20.605 29.2285 20.6538C29.2871 20.701 29.4084 20.7629 29.5923 20.8394C29.9552 20.9858 30.2116 21.1462 30.3613 21.3203C30.5127 21.4945 30.5884 21.7012 30.5884 21.9404Z" fill="#FD8516"/>
<defs>
<filter id="filter0_b_12_283" x="14" y="12" width="22" height="18" filterUnits="userSpaceOnUse" color-interpolation-filters="sRGB">
<feFlood flood-opacity="0" result="BackgroundImageFix"/>
<feGaussianBlur in="BackgroundImage" stdDeviation="2"/>
<feComposite in2="SourceAlpha" operator="in" result="effect1_backgroundBlur_12_283"/>
<feBlend mode="normal" in="SourceGraphic" in2="effect1_backgroundBlur_12_283" result="shape"/>
</filter>
<filter id="filter1_b_12_283" x="10" y="8" width="30" height="26" filterUnits="userSpaceOnUse" color-interpolation-filters="sRGB">
<feFlood flood-opacity="0" result="BackgroundImageFix"/>
<feGaussianBlur in="BackgroundImage" stdDeviation="4"/>
<feComposite in2="SourceAlpha" operator="in" result="effect1_backgroundBlur_12_283"/>
<feBlend mode="normal" in="SourceGraphic" in2="effect1_backgroundBlur_12_283" result="shape"/>
</filter>
<linearGradient id="paint0_linear_12_283" x1="23" y1="28.125" x2="2.28188" y2="-0.358586" gradientUnits="userSpaceOnUse">
<stop stop-color="#F3A340"/>
<stop offset="1" stop-color="#F5D44F"/>
</linearGradient>
<linearGradient id="paint1_linear_12_283" x1="21.5" y1="6" x2="25.1601" y2="2.74145" gradientUnits="userSpaceOnUse">
<stop stop-color="#F3A340"/>
<stop offset="1" stop-color="#F5D44F"/>
</linearGradient>
<linearGradient id="paint2_linear_12_283" x1="19" y1="17" x2="32" y2="24" gradientUnits="userSpaceOnUse">
<stop stop-color="#F7F2EB" stop-opacity="0.6"/>
<stop offset="1" stop-color="#DDCAAD" stop-opacity="0.12"/>
</linearGradient>
</defs>
</svg>
