<svg width="110" height="75" viewBox="0 0 110 75" fill="none" xmlns="http://www.w3.org/2000/svg">
<g filter="url(#filter0_d_73_723)">
<rect x="6.33337" y="26.5" width="30" height="40" rx="4" fill="#FFFDFD"/>
</g>
<circle cx="10.9167" cy="31.0835" r="1.25" fill="#FF78B0"/>
<circle cx="15.9167" cy="31.0835" r="1.25" fill="#FFC694"/>
<circle cx="20.9167" cy="31.0835" r="1.25" fill="#BCD0D1"/>
<rect x="9.66675" y="35.6665" width="23.3333" height="27.5" rx="3" fill="#F7B4AB"/>
<rect x="16.3334" y="0.666992" width="93.3333" height="66.6667" rx="4" fill="#72A6E0"/>
<rect x="21.3334" y="5.66699" width="83.3333" height="56.6667" rx="4" fill="#FFFDFD"/>
<circle cx="25.9167" cy="10.2505" r="1.25" fill="#FF78B0"/>
<circle cx="30.9167" cy="10.2505" r="1.25" fill="#FFC694"/>
<circle cx="35.9167" cy="10.2505" r="1.25" fill="#BCD0D1"/>
<rect x="24.6667" y="14.0005" width="76.6667" height="5" rx="2.5" fill="#72A6E0"/>
<rect x="27.1667" y="15.667" width="8.33333" height="1.66667" rx="0.833333" fill="white"/>
<rect x="37.1667" y="15.667" width="4.16667" height="1.66667" rx="0.833333" fill="white"/>
<rect x="43" y="15.667" width="6.66667" height="1.66667" rx="0.833333" fill="white"/>
<rect x="24.6667" y="22.3335" width="30" height="16.6667" rx="2" fill="#A3DAF8"/>
<circle cx="33.8334" cy="27.3332" r="1.16667" stroke="white"/>
<circle cx="33.8334" cy="33.1667" r="1.16667" stroke="white"/>
<circle cx="39.6667" cy="25.6667" r="1.16667" stroke="white"/>
<circle cx="45.5" cy="31.5002" r="1.16667" stroke="white"/>
<circle cx="39.6667" cy="35.6667" r="1.16667" stroke="white"/>
<circle cx="39.6667" cy="30.6667" r="1.16667" stroke="white"/>
<path d="M33.8334 28.5833V31.9167M35.0834 33.1667L38.4167 31.5M34.6667 32.3333L38.4167 26.5M40.5 26.5L44.25 30.6667M44.25 32.0729L40.5 34.8333M44.25 31.0833L40.9167 30.6667M39.25 34.4167L34.6667 28.1667L38.4167 30.25" stroke="white"/>
<rect x="58" y="22.3335" width="43.3333" height="36.6667" rx="2" fill="#F08795"/>
<path d="M96.8229 39.5451L88.6214 51.7648" stroke="white" stroke-width="2.8" stroke-linecap="round" stroke-linejoin="round"/>
<path d="M87.8536 39.7348L90.6567 43.7815" stroke="white" stroke-width="2.8" stroke-linecap="round" stroke-linejoin="round"/>
<path d="M95.7709 51.3085L94.2149 48.9902L93.826 48.4106L92.659 46.6719" stroke="white" stroke-width="2.8" stroke-linecap="round" stroke-linejoin="round"/>
<ellipse cx="87.4077" cy="53.7155" rx="1.90762" ry="1.95098" transform="rotate(-180 87.4077 53.7155)" stroke="white" stroke-width="2.8" stroke-linejoin="round"/>
<circle cx="96.8156" cy="53.7155" r="1.95098" transform="rotate(-180 96.8156 53.7155)" stroke="white" stroke-width="2.8" stroke-linejoin="round"/>
<rect x="61" y="40" width="24" height="3" fill="#DD7482"/>
<rect x="64.6666" y="46.3335" width="10" height="2.5" fill="#DD7482"/>
<rect x="61.3334" y="52.667" width="8.33333" height="2.5" fill="#DD7482"/>
<rect x="71.3334" y="52.667" width="10" height="2.5" fill="#DD7482"/>
<rect x="76.3334" y="46.3335" width="6.66667" height="2.5" fill="#DD7482"/>
<path d="M62.4268 28.5527V30H61.4805V25.7988H62.9629C64.0215 25.7988 64.5508 26.2451 64.5508 27.1377C64.5508 27.5596 64.3984 27.9014 64.0938 28.1631C63.791 28.4229 63.3857 28.5527 62.8779 28.5527H62.4268ZM62.4268 26.5254V27.835H62.7988C63.3027 27.835 63.5547 27.6143 63.5547 27.1729C63.5547 26.7412 63.3027 26.5254 62.7988 26.5254H62.4268ZM67.0322 27.835C66.9209 27.7744 66.791 27.7441 66.6426 27.7441C66.4414 27.7441 66.2842 27.8184 66.1709 27.9668C66.0576 28.1133 66.001 28.3135 66.001 28.5674V30H65.0752V27H66.001V27.5566H66.0127C66.1592 27.1504 66.4229 26.9473 66.8037 26.9473C66.9014 26.9473 66.9775 26.959 67.0322 26.9824V27.835ZM70.334 30H69.4111V29.543H69.3965C69.168 29.8965 68.8623 30.0732 68.4795 30.0732C67.7842 30.0732 67.4365 29.6523 67.4365 28.8105V27H68.3594V28.7285C68.3594 29.1523 68.5273 29.3643 68.8633 29.3643C69.0293 29.3643 69.1621 29.3066 69.2617 29.1914C69.3613 29.0742 69.4111 28.916 69.4111 28.7168V27H70.334V30ZM74.0137 30H73.0908V28.333C73.0908 27.8682 72.9248 27.6357 72.5928 27.6357C72.4326 27.6357 72.3008 27.6973 72.1973 27.8203C72.0938 27.9434 72.042 28.0996 72.042 28.2891V30H71.1162V27H72.042V27.4746H72.0537C72.2744 27.1094 72.5957 26.9268 73.0176 26.9268C73.6816 26.9268 74.0137 27.3389 74.0137 28.1631V30ZM75.2178 26.5254C75.0615 26.5254 74.9336 26.4795 74.834 26.3877C74.7344 26.2939 74.6846 26.1797 74.6846 26.0449C74.6846 25.9062 74.7344 25.793 74.834 25.7051C74.9336 25.6172 75.0615 25.5732 75.2178 25.5732C75.376 25.5732 75.5039 25.6172 75.6016 25.7051C75.7012 25.793 75.751 25.9062 75.751 26.0449C75.751 26.1855 75.7012 26.3008 75.6016 26.3906C75.5039 26.4805 75.376 26.5254 75.2178 26.5254ZM75.6748 30H74.749V27H75.6748V30ZM79.3516 30H78.4287V28.333C78.4287 27.8682 78.2627 27.6357 77.9307 27.6357C77.7705 27.6357 77.6387 27.6973 77.5352 27.8203C77.4316 27.9434 77.3799 28.0996 77.3799 28.2891V30H76.4541V27H77.3799V27.4746H77.3916C77.6123 27.1094 77.9336 26.9268 78.3555 26.9268C79.0195 26.9268 79.3516 27.3389 79.3516 28.1631V30ZM83.0283 29.6572C83.0283 30.2139 82.8672 30.6445 82.5449 30.9492C82.2227 31.2559 81.7559 31.4092 81.1445 31.4092C80.7402 31.4092 80.4199 31.3516 80.1836 31.2363V30.457C80.4922 30.6367 80.8037 30.7266 81.1182 30.7266C81.4307 30.7266 81.6729 30.6436 81.8447 30.4775C82.0166 30.3135 82.1025 30.0898 82.1025 29.8066V29.5693H82.0908C81.8799 29.9053 81.5684 30.0732 81.1562 30.0732C80.7734 30.0732 80.4697 29.9385 80.2451 29.6689C80.0205 29.3994 79.9082 29.0381 79.9082 28.585C79.9082 28.0771 80.0332 27.6738 80.2832 27.375C80.5332 27.0762 80.8623 26.9268 81.2705 26.9268C81.6357 26.9268 81.9092 27.0674 82.0908 27.3486H82.1025V27H83.0283V29.6572ZM82.1143 28.5586V28.3213C82.1143 28.1318 82.0576 27.9707 81.9443 27.8379C81.833 27.7031 81.6875 27.6357 81.5078 27.6357C81.3027 27.6357 81.1416 27.7158 81.0244 27.876C80.9072 28.0361 80.8486 28.2617 80.8486 28.5527C80.8486 28.8027 80.9043 29.001 81.0156 29.1475C81.127 29.292 81.2793 29.3643 81.4727 29.3643C81.6641 29.3643 81.8184 29.291 81.9355 29.1445C82.0547 28.9961 82.1143 28.8008 82.1143 28.5586ZM66.2676 36H65.333V33.4863C65.333 33.2148 65.3447 32.915 65.3682 32.5869H65.3447C65.2959 32.8447 65.252 33.0303 65.2129 33.1436L64.2285 36H63.4551L62.4531 33.1729C62.4258 33.0967 62.3818 32.9014 62.3213 32.5869H62.2949C62.3203 33.001 62.333 33.3643 62.333 33.6768V36H61.4805V31.7988H62.8662L63.7246 34.2891C63.793 34.4883 63.8428 34.6885 63.874 34.8896H63.8916C63.9443 34.6572 64 34.4551 64.0586 34.2832L64.917 31.7988H66.2676V36ZM68.5615 36.0732C68.0615 36.0732 67.668 35.9336 67.3809 35.6543C67.0957 35.373 66.9531 34.9922 66.9531 34.5117C66.9531 34.0156 67.1016 33.6279 67.3984 33.3486C67.6953 33.0674 68.0967 32.9268 68.6025 32.9268C69.1006 32.9268 69.4912 33.0674 69.7744 33.3486C70.0576 33.6279 70.1992 33.998 70.1992 34.459C70.1992 34.957 70.0527 35.3506 69.7598 35.6396C69.4688 35.9287 69.0693 36.0732 68.5615 36.0732ZM68.585 33.6357C68.3662 33.6357 68.1963 33.7109 68.0752 33.8613C67.9541 34.0117 67.8936 34.2246 67.8936 34.5C67.8936 35.0762 68.126 35.3643 68.5908 35.3643C69.0342 35.3643 69.2559 35.0684 69.2559 34.4766C69.2559 33.916 69.0322 33.6357 68.585 33.6357ZM73.7354 36H72.8096V35.5869H72.7979C72.5869 35.9111 72.2773 36.0732 71.8691 36.0732C71.4941 36.0732 71.1924 35.9414 70.9639 35.6777C70.7354 35.4121 70.6211 35.042 70.6211 34.5674C70.6211 34.0713 70.7471 33.6738 70.999 33.375C71.251 33.0762 71.5811 32.9268 71.9893 32.9268C72.376 32.9268 72.6455 33.0654 72.7979 33.3428H72.8096V31.5586H73.7354V36ZM72.8271 34.541V34.3154C72.8271 34.1201 72.7705 33.958 72.6572 33.8291C72.5439 33.7002 72.3965 33.6357 72.2148 33.6357C72.0098 33.6357 71.8496 33.7168 71.7344 33.8789C71.6191 34.0391 71.5615 34.2598 71.5615 34.541C71.5615 34.8047 71.6172 35.0078 71.7285 35.1504C71.8398 35.293 71.9941 35.3643 72.1914 35.3643C72.3789 35.3643 72.5312 35.2891 72.6484 35.1387C72.7676 34.9883 72.8271 34.7891 72.8271 34.541ZM77.21 34.7637H75.2529C75.2842 35.1992 75.5586 35.417 76.0762 35.417C76.4062 35.417 76.6963 35.3389 76.9463 35.1826V35.8506C76.6689 35.999 76.3086 36.0732 75.8652 36.0732C75.3809 36.0732 75.0049 35.9395 74.7373 35.6719C74.4697 35.4023 74.3359 35.0273 74.3359 34.5469C74.3359 34.0488 74.4805 33.6543 74.7695 33.3633C75.0586 33.0723 75.4141 32.9268 75.8359 32.9268C76.2734 32.9268 76.6113 33.0566 76.8496 33.3164C77.0898 33.5762 77.21 33.9287 77.21 34.374V34.7637ZM76.3516 34.1953C76.3516 33.7656 76.1777 33.5508 75.8301 33.5508C75.6816 33.5508 75.5527 33.6123 75.4434 33.7354C75.3359 33.8584 75.2705 34.0117 75.2471 34.1953H76.3516ZM78.6865 36H77.7607V31.5586H78.6865V36Z" fill="white"/>
<rect x="24.6667" y="42.3335" width="30" height="16.6667" rx="2" fill="#FFDCB4"/>
<rect x="29.6667" y="45.667" width="2.5" height="10.8333" rx="1.25" fill="#9DB6A1"/>
<rect x="35.5001" y="47.3335" width="2.5" height="9.16667" rx="1.25" fill="white"/>
<rect x="41.3334" y="49.8335" width="2.5" height="6.66667" rx="1.25" fill="#F4A4B1"/>
<rect x="47.1667" y="51.5" width="2.5" height="5" rx="1.25" fill="#74A89C"/>
<defs>
<filter id="filter0_d_73_723" x="0.333374" y="22.5" width="42" height="52" filterUnits="userSpaceOnUse" color-interpolation-filters="sRGB">
<feFlood flood-opacity="0" result="BackgroundImageFix"/>
<feColorMatrix in="SourceAlpha" type="matrix" values="0 0 0 0 0 0 0 0 0 0 0 0 0 0 0 0 0 0 127 0" result="hardAlpha"/>
<feOffset dy="2"/>
<feGaussianBlur stdDeviation="3"/>
<feComposite in2="hardAlpha" operator="out"/>
<feColorMatrix type="matrix" values="0 0 0 0 0.317098 0 0 0 0 0.4 0 0 0 0 0.346114 0 0 0 0.1 0"/>
<feBlend mode="normal" in2="BackgroundImageFix" result="effect1_dropShadow_73_723"/>
<feBlend mode="normal" in="SourceGraphic" in2="effect1_dropShadow_73_723" result="shape"/>
</filter>
</defs>
</svg>
