<svg width="110" height="75" viewBox="0 0 110 75" fill="none" xmlns="http://www.w3.org/2000/svg">
<g filter="url(#filter0_d_73_772)">
<rect x="6.33337" y="26.5" width="30" height="40" rx="4" fill="#FFFDFD"/>
</g>
<circle cx="10.9167" cy="31.0835" r="1.25" fill="#FF78B0"/>
<circle cx="15.9167" cy="31.0835" r="1.25" fill="#FFC694"/>
<circle cx="20.9167" cy="31.0835" r="1.25" fill="#BCD0D1"/>
<rect x="9.66675" y="35.6665" width="23.3333" height="27.5" rx="3" fill="#F7B4AB"/>
<rect x="16.3334" y="0.666992" width="93.3333" height="66.6667" rx="4" fill="#72A6E0"/>
<rect x="21.3334" y="5.66699" width="83.3333" height="56.6667" rx="4" fill="#FFFDFD"/>
<circle cx="25.9167" cy="10.2505" r="1.25" fill="#FF78B0"/>
<circle cx="30.9167" cy="10.2505" r="1.25" fill="#FFC694"/>
<circle cx="35.9167" cy="10.2505" r="1.25" fill="#BCD0D1"/>
<rect x="24.6667" y="14.0005" width="76.6667" height="5" rx="2.5" fill="#72A6E0"/>
<rect x="27.1667" y="15.667" width="8.33333" height="1.66667" rx="0.833333" fill="white"/>
<rect x="37.1667" y="15.667" width="4.16667" height="1.66667" rx="0.833333" fill="white"/>
<rect x="43" y="15.667" width="6.66667" height="1.66667" rx="0.833333" fill="white"/>
<rect x="24.6667" y="22.3335" width="30" height="16.6667" rx="2" fill="#A3DAF8"/>
<circle cx="33.8334" cy="27.3332" r="1.16667" stroke="white"/>
<circle cx="33.8334" cy="33.1667" r="1.16667" stroke="white"/>
<circle cx="39.6667" cy="25.6667" r="1.16667" stroke="white"/>
<circle cx="45.5" cy="31.5002" r="1.16667" stroke="white"/>
<circle cx="39.6667" cy="35.6667" r="1.16667" stroke="white"/>
<circle cx="39.6667" cy="30.6667" r="1.16667" stroke="white"/>
<path d="M33.8334 28.5833V31.9167M35.0834 33.1667L38.4167 31.5M34.6667 32.3333L38.4167 26.5M40.5 26.5L44.25 30.6667M44.25 32.0729L40.5 34.8333M44.25 31.0833L40.9167 30.6667M39.25 34.4167L34.6667 28.1667L38.4167 30.25" stroke="white"/>
<rect x="58" y="22.3335" width="43.3333" height="36.6667" rx="2" fill="#F08795"/>
<path d="M83.8176 47.9986H75.7185C75.5694 47.9952 75.4232 47.9561 75.2923 47.8847C75.1613 47.8132 75.0493 47.7115 74.9657 47.588C74.19 46.4701 73.7565 45.1925 73.5968 43.6639C73.3292 43.8208 73.0837 44.0126 72.8668 44.2343C72.6579 44.4394 72.3898 44.5734 72.1004 44.6173C71.811 44.6612 71.5152 44.6127 71.2549 44.4788C70.9947 44.3449 70.7833 44.1323 70.6508 43.8713C70.5183 43.6104 70.4714 43.3143 70.5169 43.0251C70.6994 41.93 71.0416 40.9262 71.4979 40.0821C71.9542 39.238 72.5474 38.6448 73.1634 38.3026C73.2285 38.2652 73.2834 38.2123 73.3232 38.1487C73.363 38.085 73.3864 38.0125 73.3915 37.9376C73.574 35.9299 74.2584 34.0591 75.4676 32.3481C76.4714 30.9792 77.6121 30.021 78.3878 29.4507C78.7842 29.1579 79.2639 29 79.7567 29C80.2494 29 80.7292 29.1579 81.1255 29.4507C81.9012 30.021 83.0419 31.002 84.0457 32.3937C85.2549 34.0819 85.9621 35.9527 86.1218 37.9832C86.1269 38.0581 86.1504 38.1306 86.1902 38.1943C86.2299 38.258 86.2848 38.3108 86.35 38.3482C86.966 38.6904 87.5591 39.3064 88.0154 40.1277C88.4717 40.949 88.8367 41.9757 88.9964 43.0708C89.0419 43.3599 88.9951 43.656 88.8626 43.917C88.7301 44.1779 88.5187 44.3905 88.2584 44.5244C87.9981 44.6583 87.7023 44.7068 87.4129 44.6629C87.1236 44.619 86.8554 44.485 86.6466 44.2799C86.4296 44.0582 86.1841 43.8664 85.9165 43.7096C85.7796 45.2609 85.3233 46.5157 84.5476 47.6336C84.4615 47.7457 84.351 47.8367 84.2245 47.8999C84.0981 47.9632 83.959 47.9969 83.8176 47.9986Z" fill="#FFFEFE"/>
<path d="M79.7076 52.3331C79.4595 52.3331 79.2216 52.2346 79.0462 52.0592C78.8708 51.8837 78.7722 51.6458 78.7722 51.3978V49.3901C78.7512 49.2566 78.7593 49.1201 78.7961 48.9901C78.8328 48.86 78.8973 48.7395 78.9851 48.6367C79.073 48.534 79.182 48.4515 79.3047 48.3949C79.4275 48.3384 79.561 48.3091 79.6962 48.3091C79.8313 48.3091 79.9649 48.3384 80.0876 48.3949C80.2104 48.4515 80.3194 48.534 80.4072 48.6367C80.495 48.7395 80.5595 48.86 80.5963 48.9901C80.6331 49.1201 80.6412 49.2566 80.6202 49.3901V51.3978C80.6202 51.6419 80.5248 51.8765 80.3543 52.0512C80.1838 52.226 79.9517 52.3272 79.7076 52.3331ZM76.2398 51.2381C76.117 51.2381 75.9954 51.2139 75.8819 51.1669C75.7684 51.1198 75.6653 51.0509 75.5784 50.9641C75.4916 50.8772 75.4227 50.7741 75.3756 50.6606C75.3286 50.5471 75.3044 50.4255 75.3044 50.3027V49.3901C75.3391 49.17 75.4513 48.9695 75.6207 48.8247C75.7901 48.6799 76.0056 48.6004 76.2284 48.6004C76.4513 48.6004 76.6668 48.6799 76.8362 48.8247C77.0056 48.9695 77.1177 49.17 77.1524 49.3901V50.3255C77.1466 50.5657 77.0486 50.7945 76.8787 50.9644C76.7088 51.1343 76.48 51.2323 76.2398 51.2381ZM83.1525 51.2381C82.9045 51.2381 82.6665 51.1395 82.4911 50.9641C82.3157 50.7887 82.2172 50.5507 82.2172 50.3027V49.3901C82.1961 49.2566 82.2042 49.1201 82.241 48.9901C82.2778 48.86 82.3423 48.7395 82.4301 48.6367C82.5179 48.534 82.6269 48.4515 82.7497 48.3949C82.8724 48.3384 83.006 48.3091 83.1411 48.3091C83.2763 48.3091 83.4098 48.3384 83.5326 48.3949C83.6553 48.4515 83.7644 48.534 83.8522 48.6367C83.94 48.7395 84.0045 48.86 84.0413 48.9901C84.078 49.1201 84.0861 49.2566 84.0651 49.3901V50.3255C84.0593 50.5657 83.9613 50.7945 83.7914 50.9644C83.6215 51.1343 83.3927 51.2323 83.1525 51.2381Z" fill="white"/>
<circle cx="79.7773" cy="36.4044" r="2.39224" fill="#F08795"/>
<rect x="76.218" y="43.9312" width="7.00169" height="1.40034" rx="0.700169" fill="#F08795"/>
<rect x="24.6667" y="42.3335" width="30" height="16.6667" rx="2" fill="#FFDCB4"/>
<rect x="29.6667" y="45.667" width="2.5" height="10.8333" rx="1.25" fill="#9DB6A1"/>
<rect x="35.5001" y="47.3335" width="2.5" height="9.16667" rx="1.25" fill="white"/>
<rect x="41.3334" y="49.8335" width="2.5" height="6.66667" rx="1.25" fill="#F4A4B1"/>
<rect x="47.1667" y="51.5" width="2.5" height="5" rx="1.25" fill="#74A89C"/>
<defs>
<filter id="filter0_d_73_772" x="0.333374" y="22.5" width="42" height="52" filterUnits="userSpaceOnUse" color-interpolation-filters="sRGB">
<feFlood flood-opacity="0" result="BackgroundImageFix"/>
<feColorMatrix in="SourceAlpha" type="matrix" values="0 0 0 0 0 0 0 0 0 0 0 0 0 0 0 0 0 0 127 0" result="hardAlpha"/>
<feOffset dy="2"/>
<feGaussianBlur stdDeviation="3"/>
<feComposite in2="hardAlpha" operator="out"/>
<feColorMatrix type="matrix" values="0 0 0 0 0.317098 0 0 0 0 0.4 0 0 0 0 0.346114 0 0 0 0.1 0"/>
<feBlend mode="normal" in2="BackgroundImageFix" result="effect1_dropShadow_73_772"/>
<feBlend mode="normal" in="SourceGraphic" in2="effect1_dropShadow_73_772" result="shape"/>
</filter>
</defs>
</svg>
