<svg width="34" height="28" viewBox="0 0 34 28" fill="none" xmlns="http://www.w3.org/2000/svg">
<path d="M0 4C0 1.79086 1.79086 0 4 0H22C25.3137 0 28 2.68629 28 6V24C28 26.2091 26.2091 28 24 28H4C1.79086 28 0 26.2091 0 24V4Z" fill="url(#paint0_linear_12_217)"/>
<path fill-rule="evenodd" clip-rule="evenodd" d="M10.3043 13.6296C9.58997 13.8127 8.82187 13.9042 8.00002 13.9042C7.17818 13.9042 6.41005 13.8127 5.69571 13.6296C4.98135 13.4465 4.41785 13.1762 4.00519 12.8186V13.9042C4.00519 14.1979 4.18378 14.4704 4.54096 14.7216C4.89813 14.9727 5.38361 15.1717 5.9974 15.3186C6.61119 15.4655 7.27872 15.5389 8.00001 15.5389C8.7213 15.5389 9.38883 15.4655 10.0026 15.3186C10.6164 15.1717 11.1019 14.9727 11.4591 14.7216C11.8162 14.4704 11.9948 14.1979 11.9948 13.9042V12.8186C11.5822 13.1762 11.0187 13.4466 10.3043 13.6296ZM10.2991 16.0817C9.58478 16.2648 8.81668 16.3563 7.99483 16.3563C7.17299 16.3563 6.40486 16.2648 5.69052 16.0817C4.97616 15.8986 4.41266 15.6283 4 15.2707L4.00519 16.3563C4.00519 16.65 4.18378 16.9225 4.54096 17.1737C4.89813 17.4248 5.38361 17.6238 5.9974 17.7707C6.61119 17.9176 7.27872 17.991 8.00001 17.991C8.7213 17.991 9.38364 17.9176 9.99743 17.7707C10.6112 17.6238 11.0967 17.4248 11.4539 17.1737C11.8111 16.9225 11.9896 16.65 11.9896 16.3563V15.2707C11.577 15.6283 11.0135 15.8987 10.2991 16.0817ZM10.0026 9.22031C9.38884 9.07344 8.72131 9 8.00002 9C7.27873 9 6.6112 9.07344 5.99741 9.22031C5.38362 9.36717 4.89815 9.5662 4.54097 9.81736C4.18379 10.0685 4.0052 10.341 4.0052 10.6347V11.4521C4.0052 11.7458 4.18379 12.0183 4.54097 12.2694C4.89815 12.5206 5.38362 12.7196 5.99741 12.8665C6.6112 13.0134 7.27873 13.0868 8.00002 13.0868C8.72131 13.0868 9.38884 13.0134 10.0026 12.8665C10.6164 12.7196 11.1019 12.5206 11.4591 12.2694C11.8163 12.0183 11.9948 11.7458 11.9948 11.4521V10.6347C11.9948 10.341 11.8163 10.0685 11.4591 9.81736C11.1019 9.5662 10.6164 9.36717 10.0026 9.22031ZM10.3095 21.0907C9.59516 21.2737 8.82706 21.3653 8.00521 21.3653C7.18337 21.3653 6.41524 21.2737 5.70089 21.0907C4.98654 20.9076 4.42304 20.6373 4.01038 20.2797V21.3652C4.01038 21.659 4.18897 21.9314 4.54614 22.1826C4.90332 22.4338 5.3888 22.6328 6.00259 22.7797C6.61638 22.9265 7.28391 23 8.0052 23C8.72649 23 9.39402 22.9265 10.0078 22.7797C10.6216 22.6328 11.1071 22.4338 11.4643 22.1826C11.8214 21.9314 12 21.659 12 21.3652V20.2797C11.5874 20.6373 11.0238 20.9076 10.3095 21.0907ZM10.3043 18.6386C9.58997 18.8216 8.82187 18.9132 8.00002 18.9132C7.17818 18.9132 6.41005 18.8216 5.6957 18.6386C4.98135 18.4555 4.41785 18.1852 4.00519 17.8276L4.01038 18.9131C4.01038 19.2069 4.18897 19.4793 4.54614 19.7305C4.90332 19.9817 5.3888 20.1807 6.00259 20.3276C6.61638 20.4744 7.28391 20.5479 8.0052 20.5479C8.72649 20.5479 9.38883 20.4744 10.0026 20.3276C10.6164 20.1807 11.1019 19.9817 11.4591 19.7305C11.8162 19.4793 11.9948 19.2069 11.9948 18.9131V17.8276C11.5822 18.1852 11.0187 18.4555 10.3043 18.6386Z" fill="white"/>
<path d="M19.0001 18.9354C19.823 18.9354 20.5921 18.8542 21.3073 18.6916C22.0226 18.5291 22.5868 18.289 23 17.9715V18.9354C23 19.1963 22.8212 19.4382 22.4635 19.6612C22.1059 19.8843 21.6198 20.061 21.0052 20.1914C20.3907 20.3218 19.7223 20.3871 19.0001 20.3871C18.2779 20.3871 17.6095 20.3218 16.9949 20.1914C16.3803 20.061 15.8942 19.8843 15.5366 19.6612C15.179 19.4382 15.0001 19.1963 15.0001 18.9354V17.9715C15.4133 18.289 15.9776 18.529 16.6928 18.6916C17.4081 18.8542 18.1772 18.9354 19.0001 18.9354ZM19.0001 21.5484C19.823 21.5484 20.5921 21.4671 21.3073 21.3045C22.0226 21.142 22.5868 20.902 23 20.5844V21.5484C23 21.8092 22.8212 22.0511 22.4635 22.2742C22.1059 22.4972 21.6198 22.674 21.0052 22.8044C20.3907 22.9348 19.7223 23 19.0001 23C18.2779 23 17.6095 22.9348 16.9949 22.8044C16.3803 22.674 15.8942 22.4972 15.5366 22.2742C15.179 22.0511 15.0001 21.8092 15.0001 21.5484V20.5844C15.4133 20.9019 15.9776 21.142 16.6928 21.3045C17.4081 21.4671 18.1772 21.5484 19.0001 21.5484Z" fill="white"/>
<path d="M19 14C19.7222 14 20.3906 14.0652 21.0051 14.1956C21.6197 14.3261 22.1058 14.5028 22.4635 14.7258C22.8211 14.9489 22.9999 15.1908 22.9999 15.4516V16.1775C22.9999 16.4383 22.8211 16.6802 22.4635 16.9033C22.1058 17.1263 21.6197 17.303 21.0051 17.4335C20.3906 17.5639 19.7222 17.6291 19 17.6291C18.2778 17.6291 17.6094 17.5639 16.9948 17.4335C16.3802 17.303 15.8941 17.1263 15.5365 16.9033C15.1789 16.6802 15 16.4383 15 16.1775V15.4516C15 15.1908 15.1789 14.9489 15.5365 14.7258C15.8941 14.5028 16.3802 14.3261 16.9948 14.1956C17.6094 14.0652 18.2778 14 19 14Z" fill="white"/>
<g filter="url(#filter0_b_12_217)">
<rect x="20" y="14" width="14" height="10" rx="2" fill="#C5BBFF" fill-opacity="0.44"/>
</g>
<g filter="url(#filter1_b_12_217)">
<rect x="20.1" y="14.1" width="13.8" height="9.8" rx="1.9" stroke="url(#paint1_linear_12_217)" stroke-width="0.2"/>
</g>
<path d="M27.25 17L29.25 19M29.25 19L27.25 21M29.25 19H24.25" stroke="#4F39FF"/>
<circle cx="16" cy="9" r="3" fill="#DBD8FF" fill-opacity="0.4"/>
<circle cx="16" cy="9" r="2.9" stroke="white" stroke-opacity="0.2" stroke-width="0.2"/>
<path opacity="0.4" d="M15.3164 10.6367C15.0326 10.6367 14.8262 10.5846 14.6973 10.4805C14.5684 10.3763 14.5039 10.1908 14.5039 9.92383V9.45508C14.5039 9.21549 14.4049 9.0957 14.207 9.0957V8.73633C14.4049 8.73633 14.5039 8.61198 14.5039 8.36328V7.92773C14.5039 7.65951 14.5677 7.47135 14.6953 7.36328C14.8229 7.25391 15.0299 7.19922 15.3164 7.19922V7.56445C15.1081 7.56445 15.0039 7.67773 15.0039 7.9043V8.32031C15.0039 8.63281 14.9036 8.83008 14.7031 8.91211V8.91992C14.9036 9.00065 15.0039 9.20052 15.0039 9.51953V9.91992C15.0039 10.0475 15.028 10.138 15.0762 10.1914C15.1257 10.2448 15.2057 10.2715 15.3164 10.2715V10.6367ZM17.8535 9.0957C17.6543 9.0957 17.5547 9.21745 17.5547 9.46094V9.91211C17.5547 10.1868 17.4909 10.3763 17.3633 10.4805C17.237 10.5846 17.0312 10.6367 16.7461 10.6367V10.2715C16.8555 10.2715 16.9349 10.2448 16.9844 10.1914C17.0339 10.1393 17.0586 10.0501 17.0586 9.92383V9.50781C17.0586 9.19661 17.1582 9.00195 17.3574 8.92383V8.91602C17.1582 8.83398 17.0586 8.63021 17.0586 8.30469V7.9043C17.0586 7.67773 16.9544 7.56445 16.7461 7.56445V7.19922C17.0299 7.19922 17.2357 7.25391 17.3633 7.36328C17.4909 7.47135 17.5547 7.6569 17.5547 7.91992V8.36719C17.5547 8.61328 17.6543 8.73633 17.8535 8.73633V9.0957Z" fill="white"/>
<defs>
<filter id="filter0_b_12_217" x="16" y="10" width="22" height="18" filterUnits="userSpaceOnUse" color-interpolation-filters="sRGB">
<feFlood flood-opacity="0" result="BackgroundImageFix"/>
<feGaussianBlur in="BackgroundImage" stdDeviation="2"/>
<feComposite in2="SourceAlpha" operator="in" result="effect1_backgroundBlur_12_217"/>
<feBlend mode="normal" in="SourceGraphic" in2="effect1_backgroundBlur_12_217" result="shape"/>
</filter>
<filter id="filter1_b_12_217" x="12" y="6" width="30" height="26" filterUnits="userSpaceOnUse" color-interpolation-filters="sRGB">
<feFlood flood-opacity="0" result="BackgroundImageFix"/>
<feGaussianBlur in="BackgroundImage" stdDeviation="4"/>
<feComposite in2="SourceAlpha" operator="in" result="effect1_backgroundBlur_12_217"/>
<feBlend mode="normal" in="SourceGraphic" in2="effect1_backgroundBlur_12_217" result="shape"/>
</filter>
<linearGradient id="paint0_linear_12_217" x1="3" y1="1.5" x2="20.6116" y2="30.5677" gradientUnits="userSpaceOnUse">
<stop stop-color="#8075FA"/>
<stop offset="1" stop-color="#5141D6"/>
</linearGradient>
<linearGradient id="paint1_linear_12_217" x1="21" y1="15" x2="34" y2="22" gradientUnits="userSpaceOnUse">
<stop stop-color="#EBEBF7" stop-opacity="0.6"/>
<stop offset="1" stop-color="#AEADDD" stop-opacity="0.12"/>
</linearGradient>
</defs>
</svg>
