<svg width="110" height="75" viewBox="0 0 110 75" fill="none" xmlns="http://www.w3.org/2000/svg">
<g filter="url(#filter0_d_73_866)">
<rect x="6.33337" y="26.5" width="30" height="40" rx="4" fill="#FFFDFD"/>
</g>
<circle cx="10.9167" cy="31.0835" r="1.25" fill="#FF78B0"/>
<circle cx="15.9167" cy="31.0835" r="1.25" fill="#FFC694"/>
<circle cx="20.9167" cy="31.0835" r="1.25" fill="#BCD0D1"/>
<rect x="9.66675" y="35.6665" width="23.3333" height="27.5" rx="3" fill="#F0CDE0"/>
<rect x="16.3334" y="0.666992" width="93.3333" height="66.6667" rx="4" fill="#374BAE"/>
<rect x="21.3334" y="5.66699" width="83.3333" height="56.6667" rx="4" fill="#FFFDFD"/>
<circle cx="25.9167" cy="10.2505" r="1.25" fill="#FF78B0"/>
<circle cx="30.9167" cy="10.2505" r="1.25" fill="#FFC694"/>
<circle cx="35.9167" cy="10.2505" r="1.25" fill="#BCD0D1"/>
<rect x="24.6667" y="14.0005" width="76.6667" height="5" rx="2.5" fill="#5D6DBB"/>
<rect x="27.1667" y="15.667" width="8.33333" height="1.66667" rx="0.833333" fill="white"/>
<rect x="37.1667" y="15.667" width="4.16667" height="1.66667" rx="0.833333" fill="white"/>
<rect x="43" y="15.667" width="6.66667" height="1.66667" rx="0.833333" fill="white"/>
<rect x="24.6667" y="22.3335" width="30" height="16.6667" rx="2" fill="#A3DAF8"/>
<path d="M29.0679 29.0671C28.5164 29.0671 28.0671 28.8881 27.7197 28.53C27.3724 28.1684 27.1987 27.7002 27.1987 27.1255C27.1987 26.5186 27.3751 26.0262 27.7278 25.6484C28.0787 25.2725 28.546 25.0845 29.1296 25.0845C29.6793 25.0845 30.1233 25.2644 30.4617 25.6243C30.8018 25.9823 30.9719 26.4568 30.9719 27.0476C30.9719 27.651 30.7956 28.1388 30.4429 28.5112C30.4303 28.5238 30.4187 28.5363 30.408 28.5488C30.3972 28.5596 30.3856 28.5703 30.373 28.5811L31.3479 29.5183H30.134L29.6238 29C29.4555 29.0448 29.2702 29.0671 29.0679 29.0671ZM29.1055 25.8311C28.8029 25.8311 28.5612 25.9456 28.3804 26.1748C28.2013 26.4022 28.1118 26.7039 28.1118 27.0798C28.1118 27.4612 28.2013 27.7629 28.3804 27.9849C28.5594 28.2069 28.7939 28.3179 29.084 28.3179C29.383 28.3179 29.6202 28.2104 29.7957 27.9956C29.9711 27.7772 30.0588 27.4773 30.0588 27.0959C30.0588 26.6985 29.9738 26.3879 29.8037 26.1641C29.6354 25.9421 29.4027 25.8311 29.1055 25.8311ZM34.1436 29H33.2976V28.5811H33.2842C33.0747 28.9051 32.7945 29.0671 32.4436 29.0671C31.8062 29.0671 31.4875 28.6813 31.4875 27.9097V26.25H32.3335V27.8345C32.3335 28.223 32.4875 28.4172 32.7954 28.4172C32.9476 28.4172 33.0693 28.3644 33.1606 28.2588C33.252 28.1514 33.2976 28.0063 33.2976 27.8237V26.25H34.1436V29ZM37.1487 29H36.3457V28.6052H36.335C36.1506 28.9132 35.8775 29.0671 35.5159 29.0671C35.2491 29.0671 35.0387 28.9919 34.8848 28.8416C34.7326 28.6894 34.6565 28.4871 34.6565 28.2346C34.6565 27.7011 34.9725 27.3931 35.6045 27.3108L36.3511 27.2114C36.3511 26.9106 36.1882 26.7603 35.8623 26.7603C35.5347 26.7603 35.2231 26.8578 34.9277 27.053V26.4138C35.0459 26.3529 35.207 26.2992 35.4111 26.2527C35.617 26.2061 35.8041 26.1829 35.9724 26.1829C36.7566 26.1829 37.1487 26.5741 37.1487 27.3564V29ZM36.3511 27.8828V27.6975L35.8516 27.762C35.5758 27.7978 35.438 27.9222 35.438 28.1353C35.438 28.2319 35.4711 28.3116 35.5374 28.3743C35.6054 28.4351 35.6967 28.4656 35.8113 28.4656C35.9706 28.4656 36.1004 28.411 36.2007 28.3018C36.3009 28.1908 36.3511 28.0511 36.3511 27.8828ZM40.4761 29H39.6301V27.4719C39.6301 27.0458 39.4779 26.8328 39.1736 26.8328C39.0268 26.8328 38.9059 26.8892 38.811 27.002C38.7161 27.1147 38.6687 27.258 38.6687 27.4316V29H37.8201V26.25H38.6687V26.6851H38.6794C38.8818 26.3503 39.1763 26.1829 39.563 26.1829C40.1717 26.1829 40.4761 26.5606 40.4761 27.3162V29ZM42.8125 28.9678C42.6872 29.034 42.4983 29.0671 42.2458 29.0671C41.6479 29.0671 41.3489 28.7565 41.3489 28.1353V26.8757H40.9031V26.25H41.3489V25.6565L42.1948 25.4148V26.25H42.8125V26.8757H42.1948V27.9875C42.1948 28.274 42.3085 28.4172 42.5359 28.4172C42.6254 28.4172 42.7176 28.3913 42.8125 28.3394V28.9678ZM43.7229 25.8149C43.5797 25.8149 43.4624 25.7729 43.3711 25.6887C43.2798 25.6028 43.2341 25.498 43.2341 25.3745C43.2341 25.2474 43.2798 25.1436 43.3711 25.063C43.4624 24.9824 43.5797 24.9421 43.7229 24.9421C43.8679 24.9421 43.9852 24.9824 44.0747 25.063C44.166 25.1436 44.2117 25.2474 44.2117 25.3745C44.2117 25.5034 44.166 25.609 44.0747 25.6914C43.9852 25.7738 43.8679 25.8149 43.7229 25.8149ZM44.1418 29H43.2932V26.25H44.1418V29ZM47.0342 29H44.5662V28.6482L45.9465 26.8757H44.7031V26.25H47.0234V26.6689L45.7156 28.3743H47.0342V29ZM49.7815 29H48.9785V28.6052H48.9678C48.7834 28.9132 48.5103 29.0671 48.1487 29.0671C47.8819 29.0671 47.6715 28.9919 47.5176 28.8416C47.3654 28.6894 47.2893 28.4871 47.2893 28.2346C47.2893 27.7011 47.6053 27.3931 48.2373 27.3108L48.9839 27.2114C48.9839 26.9106 48.821 26.7603 48.4951 26.7603C48.1675 26.7603 47.856 26.8578 47.5605 27.053V26.4138C47.6787 26.3529 47.8398 26.2992 48.0439 26.2527C48.2498 26.2061 48.4369 26.1829 48.6052 26.1829C49.3894 26.1829 49.7815 26.5741 49.7815 27.3564V29ZM48.9839 27.8828V27.6975L48.4844 27.762C48.2087 27.7978 48.0708 27.9222 48.0708 28.1353C48.0708 28.2319 48.1039 28.3116 48.1702 28.3743C48.2382 28.4351 48.3295 28.4656 48.4441 28.4656C48.6034 28.4656 48.7332 28.411 48.8335 28.3018C48.9338 28.1908 48.9839 28.0511 48.9839 27.8828ZM51.9487 27.8291H50.4797V27.2356H51.9487V27.8291ZM29.0195 34.9678C28.8942 35.034 28.7053 35.0671 28.4529 35.0671C27.8549 35.0671 27.5559 34.7565 27.5559 34.1353V32.8757H27.1101V32.25H27.5559V31.6565L28.4019 31.4148V32.25H29.0195V32.8757H28.4019V33.9875C28.4019 34.274 28.5155 34.4172 28.7429 34.4172C28.8324 34.4172 28.9246 34.3913 29.0195 34.3394V34.9678ZM29.9299 31.8149C29.7867 31.8149 29.6694 31.7729 29.5781 31.6887C29.4868 31.6028 29.4412 31.498 29.4412 31.3745C29.4412 31.2474 29.4868 31.1436 29.5781 31.063C29.6694 30.9824 29.7867 30.9421 29.9299 30.9421C30.075 30.9421 30.1922 30.9824 30.2817 31.063C30.373 31.1436 30.4187 31.2474 30.4187 31.3745C30.4187 31.5034 30.373 31.609 30.2817 31.6914C30.1922 31.7738 30.075 31.8149 29.9299 31.8149ZM30.3489 35H29.5002V32.25H30.3489V35ZM32.3738 35.0671C31.9154 35.0671 31.5547 34.9391 31.2915 34.6831C31.0301 34.4253 30.8994 34.0762 30.8994 33.6357C30.8994 33.181 31.0355 32.8256 31.3076 32.5696C31.5798 32.3118 31.9477 32.1829 32.4114 32.1829C32.8679 32.1829 33.226 32.3118 33.4856 32.5696C33.7452 32.8256 33.875 33.1649 33.875 33.5874C33.875 34.0439 33.7407 34.4047 33.4722 34.6697C33.2054 34.9347 32.8393 35.0671 32.3738 35.0671ZM32.3953 32.8328C32.1947 32.8328 32.039 32.9017 31.928 33.0396C31.817 33.1774 31.7615 33.3726 31.7615 33.625C31.7615 34.1532 31.9745 34.4172 32.4006 34.4172C32.807 34.4172 33.0103 34.146 33.0103 33.6035C33.0103 33.0897 32.8053 32.8328 32.3953 32.8328ZM37.0815 35H36.2356V33.4719C36.2356 33.0458 36.0834 32.8328 35.7791 32.8328C35.6322 32.8328 35.5114 32.8892 35.4165 33.002C35.3216 33.1147 35.2742 33.258 35.2742 33.4316V35H34.4255V32.25H35.2742V32.6851H35.2849C35.4872 32.3503 35.7817 32.1829 36.1685 32.1829C36.7772 32.1829 37.0815 32.5606 37.0815 33.3162V35Z" fill="#3C7392"/>
<rect x="58" y="22.3335" width="43.3333" height="36.6667" rx="2" fill="#5E6DBB"/>
<circle cx="67.1666" cy="31.5" r="5" fill="#8FBBFB"/>
<circle cx="67.1666" cy="31.5" r="4.9" stroke="white" stroke-opacity="0.2" stroke-width="0.2"/>
<circle cx="93" cy="35.6667" r="4.16667" fill="#E59496"/>
<circle cx="93" cy="35.6667" r="4.06667" stroke="white" stroke-opacity="0.2" stroke-width="0.2"/>
<circle cx="78.4166" cy="37.75" r="1.25" fill="#8FBBFB"/>
<circle cx="78.4166" cy="37.75" r="1.15" stroke="white" stroke-opacity="0.2" stroke-width="0.2"/>
<path d="M64.8281 29.7788V33H64.136V30.561C64.0979 30.5947 64.0525 30.627 63.9998 30.6577C63.9485 30.687 63.8936 30.7141 63.835 30.739C63.7764 30.7625 63.7156 30.783 63.6526 30.8005C63.5896 30.8167 63.5273 30.8284 63.4658 30.8357V30.2512C63.646 30.1985 63.8159 30.1311 63.9756 30.0491C64.1353 29.967 64.2795 29.877 64.4084 29.7788H64.8281ZM66.531 32.4243H67.8669V33H65.7708V32.7627C65.7708 32.6016 65.7979 32.4573 65.8521 32.3298C65.9062 32.2009 65.9744 32.0859 66.0564 31.9849C66.1384 31.8823 66.2278 31.7922 66.3245 31.7146C66.4226 31.6355 66.5156 31.5645 66.6035 31.5015C66.6958 31.4355 66.7764 31.3726 66.8452 31.3125C66.9155 31.2524 66.9741 31.1931 67.021 31.1345C67.0693 31.0745 67.1052 31.0144 67.1287 30.9543C67.1521 30.8928 67.1638 30.8276 67.1638 30.7588C67.1638 30.624 67.1257 30.5222 67.0496 30.4534C66.9734 30.3845 66.8569 30.3501 66.7002 30.3501C66.4292 30.3501 66.1699 30.4578 65.9224 30.6731V30.0623C66.1963 29.885 66.5054 29.7964 66.8496 29.7964C67.0093 29.7964 67.1521 29.8176 67.2781 29.8601C67.4055 29.9011 67.5132 29.9604 67.6011 30.0381C67.689 30.1157 67.7556 30.2102 67.801 30.3215C67.8479 30.4314 67.8713 30.5544 67.8713 30.6907C67.8713 30.8357 67.8486 30.9646 67.8032 31.0774C67.7593 31.1902 67.7 31.2927 67.6252 31.385C67.552 31.4773 67.467 31.5623 67.3704 31.6399C67.2737 31.7161 67.1733 31.79 67.0693 31.8618C66.999 31.9116 66.9309 31.9614 66.865 32.0112C66.8005 32.0596 66.7434 32.1079 66.6936 32.1562C66.6438 32.2031 66.6042 32.2493 66.575 32.2947C66.5457 32.3401 66.531 32.3833 66.531 32.4243ZM70.7234 33H69.8906L69.1721 31.8838H69.1633V33H68.469V29.6689H69.1633V31.7893H69.1721L69.8423 30.75H70.6663L69.8599 31.8069L70.7234 33Z" fill="white"/>
<path d="M90.1758 36.1519C90.1758 36.064 90.1882 35.9797 90.2131 35.8992C90.2395 35.8171 90.2783 35.7417 90.3296 35.6729C90.3809 35.6025 90.4446 35.5403 90.5208 35.4861C90.5984 35.4304 90.6892 35.385 90.7932 35.3499C90.6335 35.2708 90.5098 35.1697 90.4219 35.0466C90.334 34.9221 90.29 34.7844 90.29 34.6335C90.29 34.5134 90.3149 34.4021 90.3647 34.2996C90.416 34.197 90.4863 34.1084 90.5757 34.0337C90.665 33.959 90.7712 33.9011 90.8943 33.8601C91.0188 33.8176 91.1543 33.7964 91.3008 33.7964C91.4502 33.7964 91.5872 33.8176 91.7117 33.8601C91.8362 33.9011 91.9431 33.959 92.0325 34.0337C92.1233 34.1069 92.1936 34.1941 92.2434 34.2952C92.2932 34.3962 92.3181 34.5061 92.3181 34.6248C92.3181 34.7742 92.2712 34.9104 92.1775 35.0334C92.0837 35.155 91.9541 35.2554 91.7886 35.3345C91.8911 35.3696 91.9812 35.415 92.0588 35.4707C92.1365 35.5249 92.2017 35.5872 92.2544 35.6575C92.3071 35.7278 92.3467 35.8047 92.373 35.8882C92.3994 35.9702 92.4126 36.0559 92.4126 36.1453C92.4126 36.28 92.3855 36.4031 92.3313 36.5144C92.2771 36.6243 92.2002 36.7195 92.1006 36.8C92.0024 36.8792 91.8845 36.9407 91.7468 36.9846C91.6106 37.0286 91.4597 37.0505 91.2942 37.0505C91.1316 37.0505 90.9814 37.0293 90.8438 36.9868C90.7075 36.9429 90.5896 36.8813 90.49 36.8022C90.3918 36.7231 90.3149 36.6287 90.2593 36.5188C90.2036 36.4075 90.1758 36.2852 90.1758 36.1519ZM90.8328 36.0925C90.8328 36.1643 90.8438 36.2288 90.8657 36.2859C90.8877 36.343 90.9192 36.3914 90.9602 36.4309C91.0012 36.4705 91.0496 36.5012 91.1052 36.5232C91.1624 36.5437 91.2261 36.554 91.2964 36.554C91.3638 36.554 91.4253 36.543 91.481 36.521C91.5381 36.499 91.5872 36.4683 91.6282 36.4287C91.6692 36.3892 91.7014 36.3408 91.7249 36.2837C91.7483 36.2266 91.76 36.1628 91.76 36.0925C91.76 36.0295 91.749 35.9695 91.7271 35.9124C91.7051 35.8552 91.6736 35.8062 91.6326 35.7651C91.5916 35.7227 91.5425 35.689 91.4854 35.6641C91.4297 35.6392 91.3667 35.6267 91.2964 35.6267C91.2305 35.6267 91.1689 35.6384 91.1118 35.6619C91.0547 35.6838 91.0056 35.7161 90.9646 35.7585C90.9236 35.7996 90.8914 35.8486 90.8679 35.9058C90.8445 35.9629 90.8328 36.0251 90.8328 36.0925ZM90.9294 34.6973C90.9294 34.7529 90.939 34.8057 90.958 34.8555C90.9785 34.9038 91.0056 34.9463 91.0393 34.9829C91.073 35.0181 91.1125 35.0459 91.158 35.0664C91.2048 35.0869 91.2539 35.0972 91.3052 35.0972C91.3579 35.0972 91.407 35.0869 91.4524 35.0664C91.4978 35.0459 91.5374 35.0173 91.571 34.9807C91.6062 34.9441 91.6333 34.9016 91.6523 34.8533C91.6729 34.8049 91.6831 34.7529 91.6831 34.6973C91.6831 34.6401 91.6736 34.5874 91.6545 34.5391C91.6355 34.4893 91.6084 34.4468 91.5732 34.4116C91.5396 34.375 91.4993 34.3464 91.4524 34.3259C91.407 34.3054 91.3579 34.2952 91.3052 34.2952C91.2495 34.2952 91.1982 34.3062 91.1514 34.3281C91.106 34.3486 91.0664 34.3772 91.0327 34.4138C91.0005 34.449 90.9749 34.4915 90.9558 34.5413C90.9382 34.5896 90.9294 34.6416 90.9294 34.6973ZM95.135 37H94.3022L93.5837 35.8838H93.575V37H92.8806V33.6689H93.575V35.7893H93.5837L94.2539 34.75H95.0779L94.2715 35.8069L95.135 37Z" fill="white"/>
<g opacity="0.5">
<path d="M73.4167 49.7799C74.0168 49.7799 74.5776 49.7121 75.0991 49.5767C75.6206 49.4412 76.0321 49.2412 76.3333 48.9765V49.7798C76.3333 49.9972 76.2029 50.1988 75.9422 50.3847C75.6814 50.5706 75.327 50.7178 74.8788 50.8265C74.4307 50.9352 73.9433 50.9895 73.4167 50.9895C72.8901 50.9895 72.4027 50.9352 71.9546 50.8265C71.5065 50.7178 71.152 50.5706 70.8913 50.3847C70.6305 50.1988 70.5001 49.9972 70.5001 49.7798V48.9765C70.8014 49.2412 71.2128 49.4412 71.7344 49.5767C72.2559 49.7121 72.8167 49.7799 73.4167 49.7799ZM73.4167 51.9573C74.0168 51.9573 74.5776 51.8896 75.0991 51.7541C75.6206 51.6187 76.0321 51.4186 76.3333 51.154V51.9573C76.3333 52.1747 76.2029 52.3763 75.9422 52.5621C75.6814 52.748 75.327 52.8953 74.8788 53.004C74.4307 53.1126 73.9433 53.167 73.4167 53.167C72.8901 53.167 72.4027 53.1126 71.9546 53.004C71.5065 52.8953 71.152 52.748 70.8913 52.5621C70.6305 52.3763 70.5001 52.1747 70.5001 51.9573V51.154C70.8014 51.4186 71.2128 51.6186 71.7344 51.7541C72.2559 51.8896 72.8167 51.9573 73.4167 51.9573Z" fill="#8FBBFB"/>
<path d="M73.4166 45.667C73.9433 45.667 74.4306 45.7213 74.8788 45.83C75.3269 45.9387 75.6813 46.086 75.9421 46.2718C76.2029 46.4577 76.3333 46.6593 76.3333 46.8767V47.4815C76.3333 47.6989 76.2029 47.9005 75.9421 48.0864C75.6813 48.2722 75.3269 48.4195 74.8788 48.5282C74.4306 48.6369 73.9433 48.6912 73.4166 48.6912C72.89 48.6912 72.4027 48.6369 71.9545 48.5282C71.5064 48.4195 71.152 48.2722 70.8912 48.0864C70.6304 47.9005 70.5 47.6989 70.5 47.4815V46.8767C70.5 46.6593 70.6304 46.4577 70.8912 46.2718C71.152 46.086 71.5064 45.9387 71.9545 45.83C72.4027 45.7213 72.89 45.667 73.4166 45.667Z" fill="#8FBBFB"/>
</g>
<path fill-rule="evenodd" clip-rule="evenodd" d="M68.2536 45.358C67.6583 45.5106 67.0182 45.5868 66.3334 45.5868C65.6485 45.5868 65.0084 45.5106 64.4131 45.358C63.8178 45.2055 63.3482 44.9802 63.0043 44.6822V45.5868C63.0043 45.8316 63.1531 46.0587 63.4508 46.268C63.7484 46.4773 64.153 46.6431 64.6645 46.7655C65.176 46.8879 65.7323 46.9491 66.3333 46.9491C66.9344 46.9491 67.4907 46.8879 68.0022 46.7655C68.5137 46.6431 68.9182 46.4773 69.2159 46.268C69.5135 46.0587 69.6624 45.8316 69.6624 45.5868V44.6822C69.3185 44.9802 68.8489 45.2055 68.2536 45.358ZM68.2493 47.4014C67.654 47.554 67.0139 47.6303 66.329 47.6303C65.6442 47.6303 65.004 47.554 64.4088 47.4014C63.8135 47.2489 63.3439 47.0236 63 46.7256L63.0043 47.6302C63.0043 47.875 63.1531 48.1021 63.4508 48.3114C63.7484 48.5207 64.153 48.6865 64.6645 48.8089C65.176 48.9313 65.7323 48.9925 66.3333 48.9925C66.9344 48.9925 67.4864 48.9313 67.9979 48.8089C68.5094 48.6865 68.9139 48.5207 69.2116 48.3114C69.5092 48.1021 69.658 47.875 69.658 47.6302V46.7256C69.3142 47.0236 68.8446 47.2489 68.2493 47.4014ZM68.0022 41.6836C67.4907 41.5612 66.9344 41.5 66.3334 41.5C65.7323 41.5 65.176 41.5612 64.6645 41.6836C64.153 41.806 63.7485 41.9718 63.4508 42.1811C63.1532 42.3904 63.0043 42.6175 63.0043 42.8623V43.5434C63.0043 43.7882 63.1532 44.0152 63.4508 44.2245C63.7485 44.4338 64.153 44.5997 64.6645 44.7221C65.176 44.8445 65.7323 44.9057 66.3334 44.9057C66.9344 44.9057 67.4907 44.8445 68.0022 44.7221C68.5137 44.5997 68.9183 44.4338 69.2159 44.2245C69.5135 44.0152 69.6624 43.7882 69.6624 43.5434V42.8623C69.6624 42.6175 69.5135 42.3904 69.2159 42.1811C68.9183 41.9718 68.5137 41.806 68.0022 41.6836ZM68.2579 51.5756C67.6626 51.7282 67.0225 51.8044 66.3376 51.8044C65.6528 51.8044 65.0126 51.7281 64.4174 51.5756C63.8221 51.423 63.3525 51.1978 63.0086 50.8998V51.8044C63.0086 52.0492 63.1574 52.2762 63.4551 52.4855C63.7527 52.6949 64.1573 52.8607 64.6688 52.9831C65.1803 53.1055 65.7365 53.1667 66.3376 53.1667C66.9387 53.1667 67.495 53.1055 68.0065 52.9831C68.5179 52.8607 68.9225 52.6949 69.2202 52.4855C69.5178 52.2762 69.6666 52.0492 69.6666 51.8044V50.8998C69.3227 51.1978 68.8532 51.4231 68.2579 51.5756ZM68.2535 49.5322C67.6583 49.6847 67.0182 49.761 66.3333 49.761C65.6484 49.761 65.0083 49.6847 64.413 49.5322C63.8177 49.3796 63.3482 49.1544 63.0043 48.8564L63.0086 49.761C63.0086 50.0058 63.1574 50.2328 63.4551 50.4421C63.7527 50.6514 64.1573 50.8173 64.6688 50.9397C65.1803 51.0621 65.7365 51.1233 66.3376 51.1233C66.9387 51.1233 67.4906 51.0621 68.0021 50.9397C68.5136 50.8173 68.9182 50.6514 69.2158 50.4421C69.5135 50.2328 69.6623 50.0058 69.6623 49.761V48.8564C69.3184 49.1544 68.8488 49.3796 68.2535 49.5322Z" fill="#B7D4FF"/>
<path d="M93 49.7799C93.6858 49.7799 94.3267 49.7121 94.9227 49.5767C95.5188 49.4412 95.989 49.2412 96.3333 48.9765V49.7798C96.3333 49.9972 96.1843 50.1988 95.8863 50.3847C95.5882 50.5706 95.1831 50.7178 94.671 50.8265C94.1589 50.9352 93.6019 50.9895 93 50.9895C92.3982 50.9895 91.8412 50.9352 91.329 50.8265C90.8169 50.7178 90.4118 50.5706 90.1138 50.3847C89.8158 50.1988 89.6667 49.9972 89.6667 49.7798V48.9765C90.0111 49.2412 90.4813 49.4412 91.0773 49.5767C91.6734 49.7121 92.3143 49.7799 93 49.7799ZM93 51.9573C93.6858 51.9573 94.3267 51.8896 94.9227 51.7541C95.5188 51.6187 95.989 51.4186 96.3333 51.154V51.9573C96.3333 52.1747 96.1843 52.3763 95.8863 52.5621C95.5882 52.748 95.1831 52.8953 94.671 53.004C94.1589 53.1126 93.6019 53.167 93 53.167C92.3982 53.167 91.8412 53.1126 91.329 53.004C90.8169 52.8953 90.4118 52.748 90.1138 52.5621C89.8158 52.3763 89.6667 52.1747 89.6667 51.9573V51.154C90.0111 51.4186 90.4813 51.6186 91.0773 51.7541C91.6734 51.8896 92.3143 51.9573 93 51.9573Z" fill="#E59496"/>
<path d="M92.9999 45.667C93.6018 45.667 94.1588 45.7213 94.6709 45.83C95.1831 45.9387 95.5881 46.086 95.8862 46.2718C96.1842 46.4577 96.3332 46.6593 96.3332 46.8767V47.4815C96.3332 47.6989 96.1842 47.9005 95.8862 48.0864C95.5881 48.2722 95.1831 48.4195 94.6709 48.5282C94.1588 48.6369 93.6018 48.6912 92.9999 48.6912C92.3981 48.6912 91.8411 48.6369 91.329 48.5282C90.8168 48.4195 90.4117 48.2722 90.1137 48.0864C89.8157 47.9005 89.6667 47.6989 89.6667 47.4815V46.8767C89.6667 46.6593 89.8157 46.4577 90.1137 46.2718C90.4117 46.086 90.8168 45.9387 91.329 45.83C91.8411 45.7213 92.3981 45.667 92.9999 45.667Z" fill="#E59496"/>
<rect x="78.8333" y="44.8335" width="8.33333" height="6.66667" rx="2" fill="#FAFBFD"/>
<path d="M83.2083 46.5L84.8749 48.1667M84.8749 48.1667L83.2083 49.8333M84.8749 48.1667H80.7083" stroke="#5D6DBB"/>
<rect x="24.6667" y="42.3335" width="30" height="16.6667" rx="2" fill="#FBE39D"/>
<path opacity="0.3" d="M33.0001 54.4168L38.8335 51.0835L44.6668 54.4168L38.8335 57.7502L33.0001 54.4168Z" fill="#9DB6A1"/>
<path opacity="0.3" d="M33.0001 51.5003L38.8335 48.167L44.6668 51.5003L38.8335 54.8337L33.0001 51.5003Z" fill="#9DB6A1"/>
<path d="M33.0001 48.1668L38.8335 44.8335L44.6668 48.1668L38.8335 51.5002L33.0001 48.1668Z" fill="#9DB6A1"/>
<defs>
<filter id="filter0_d_73_866" x="0.333374" y="22.5" width="42" height="52" filterUnits="userSpaceOnUse" color-interpolation-filters="sRGB">
<feFlood flood-opacity="0" result="BackgroundImageFix"/>
<feColorMatrix in="SourceAlpha" type="matrix" values="0 0 0 0 0 0 0 0 0 0 0 0 0 0 0 0 0 0 127 0" result="hardAlpha"/>
<feOffset dy="2"/>
<feGaussianBlur stdDeviation="3"/>
<feComposite in2="hardAlpha" operator="out"/>
<feColorMatrix type="matrix" values="0 0 0 0 0.317098 0 0 0 0 0.4 0 0 0 0 0.346114 0 0 0 0.1 0"/>
<feBlend mode="normal" in2="BackgroundImageFix" result="effect1_dropShadow_73_866"/>
<feBlend mode="normal" in="SourceGraphic" in2="effect1_dropShadow_73_866" result="shape"/>
</filter>
</defs>
</svg>
