<svg width="110" height="75" viewBox="0 0 110 75" fill="none" xmlns="http://www.w3.org/2000/svg">
<g filter="url(#filter0_d_73_984)">
<rect x="6.33337" y="26.5" width="30" height="40" rx="4" fill="#FFFDFD"/>
</g>
<circle cx="10.9167" cy="31.0835" r="1.25" fill="#FF78B0"/>
<circle cx="15.9167" cy="31.0835" r="1.25" fill="#FFC694"/>
<circle cx="20.9167" cy="31.0835" r="1.25" fill="#BCD0D1"/>
<rect x="9.66675" y="35.6665" width="23.3333" height="27.5" rx="3" fill="#F0CDE0"/>
<rect x="16.3334" y="0.666992" width="93.3333" height="66.6667" rx="4" fill="#374BAE"/>
<rect x="21.3334" y="5.66699" width="83.3333" height="56.6667" rx="4" fill="#FFFDFD"/>
<circle cx="25.9167" cy="10.2505" r="1.25" fill="#FF78B0"/>
<circle cx="30.9167" cy="10.2505" r="1.25" fill="#FFC694"/>
<circle cx="35.9167" cy="10.2505" r="1.25" fill="#BCD0D1"/>
<rect x="24.6667" y="14.0005" width="76.6667" height="5" rx="2.5" fill="#5D6DBB"/>
<rect x="27.1667" y="15.667" width="8.33333" height="1.66667" rx="0.833333" fill="white"/>
<rect x="37.1667" y="15.667" width="4.16667" height="1.66667" rx="0.833333" fill="white"/>
<rect x="43" y="15.667" width="6.66667" height="1.66667" rx="0.833333" fill="white"/>
<rect x="24.6667" y="22.3335" width="30" height="16.6667" rx="2" fill="#A3DAF8"/>
<path fill-rule="evenodd" clip-rule="evenodd" d="M32.5031 30.6404C31.9928 30.7711 31.4442 30.8365 30.8572 30.8365C30.2701 30.8365 29.7215 30.7711 29.2112 30.6404C28.701 30.5096 28.2985 30.3165 28.0037 30.0611V30.8365C28.0037 31.0463 28.1313 31.2409 28.3864 31.4203C28.6415 31.5997 28.9883 31.7419 29.4267 31.8468C29.8651 31.9517 30.3419 32.0041 30.8572 32.0041C31.3724 32.0041 31.8492 31.9517 32.2876 31.8468C32.726 31.7419 33.0728 31.5997 33.3279 31.4203C33.583 31.2409 33.7106 31.0463 33.7106 30.8365V30.0611C33.4158 30.3165 33.0133 30.5096 32.5031 30.6404ZM32.4994 32.3919C31.9891 32.5226 31.4405 32.588 30.8535 32.588C30.2664 32.588 29.7178 32.5226 29.2075 32.3919C28.6973 32.2611 28.2948 32.068 28 31.8126L28.0037 32.588C28.0037 32.7978 28.1313 32.9924 28.3864 33.1718C28.6415 33.3512 28.9883 33.4934 29.4267 33.5983C29.8651 33.7032 30.3419 33.7556 30.8572 33.7556C31.3724 33.7556 31.8455 33.7032 32.2839 33.5983C32.7223 33.4934 33.0691 33.3512 33.3242 33.1718C33.5793 32.9924 33.7069 32.7978 33.7069 32.588V31.8126C33.4121 32.068 33.0096 32.2611 32.4994 32.3919ZM32.2876 27.4909C31.8492 27.386 31.3724 27.3335 30.8572 27.3335C30.342 27.3335 29.8651 27.386 29.4267 27.4909C28.9883 27.5958 28.6415 27.7379 28.3864 27.9173C28.1313 28.0967 28.0037 28.2913 28.0037 28.5012V29.085C28.0037 29.2948 28.1313 29.4894 28.3864 29.6688C28.6415 29.8482 28.9883 29.9904 29.4267 30.0953C29.8651 30.2002 30.342 30.2526 30.8572 30.2526C31.3724 30.2526 31.8492 30.2002 32.2876 30.0953C32.726 29.9904 33.0728 29.8482 33.3279 29.6688C33.583 29.4894 33.7106 29.2948 33.7106 29.085V28.5012C33.7106 28.2913 33.583 28.0967 33.3279 27.9173C33.0728 27.7379 32.726 27.5958 32.2876 27.4909ZM32.5067 35.9694C31.9965 36.1002 31.4479 36.1656 30.8608 36.1656C30.2738 36.1656 29.7251 36.1002 29.2149 35.9694C28.7046 35.8387 28.3021 35.6456 28.0074 35.3902V36.1656C28.0074 36.3754 28.1349 36.57 28.3901 36.7494C28.6452 36.9288 28.992 37.071 29.4304 37.1759C29.8688 37.2808 30.3456 37.3332 30.8608 37.3332C31.376 37.3332 31.8528 37.2808 32.2912 37.1759C32.7297 37.071 33.0764 36.9288 33.3316 36.7494C33.5867 36.57 33.7143 36.3754 33.7143 36.1656V35.3902C33.4195 35.6456 33.017 35.8387 32.5067 35.9694ZM32.503 34.2179C31.9928 34.3487 31.4441 34.4141 30.8571 34.4141C30.2701 34.4141 29.7214 34.3487 29.2112 34.2179C28.7009 34.0872 28.2984 33.8941 28.0037 33.6387L28.0074 34.4141C28.0074 34.6239 28.1349 34.8185 28.3901 34.9979C28.6452 35.1773 28.992 35.3195 29.4304 35.4244C29.8688 35.5293 30.3456 35.5817 30.8608 35.5817C31.376 35.5817 31.8491 35.5293 32.2875 35.4244C32.726 35.3195 33.0727 35.1773 33.3279 34.9979C33.583 34.8185 33.7105 34.6239 33.7105 34.4141V33.6387C33.4158 33.8941 33.0133 34.0872 32.503 34.2179Z" fill="#6E95CD"/>
<path d="M48.463 34.3229C49.0726 34.3229 49.6423 34.2627 50.1721 34.1423C50.7019 34.0218 51.1199 33.844 51.4259 33.6088V34.3229C51.4259 34.5161 51.2935 34.6953 51.0286 34.8605C50.7636 35.0257 50.4036 35.1566 49.9483 35.2532C49.4931 35.3498 48.998 35.3981 48.463 35.3981C47.928 35.3981 47.4329 35.3498 46.9777 35.2532C46.5225 35.1566 46.1624 35.0257 45.8975 34.8605C45.6326 34.6953 45.5001 34.5161 45.5001 34.3229V33.6088C45.8062 33.844 46.2241 34.0218 46.7539 34.1423C47.2838 34.2627 47.8535 34.3229 48.463 34.3229ZM48.463 36.2584C49.0726 36.2584 49.6423 36.1982 50.1721 36.0778C50.7019 35.9574 51.1199 35.7795 51.4259 35.5443V36.2584C51.4259 36.4516 51.2935 36.6308 51.0286 36.796C50.7636 36.9612 50.4036 37.0921 49.9483 37.1887C49.4931 37.2854 48.998 37.3337 48.463 37.3337C47.928 37.3337 47.4329 37.2854 46.9777 37.1887C46.5225 37.0921 46.1624 36.9612 45.8975 36.796C45.6326 36.6308 45.5001 36.4516 45.5001 36.2584V35.5443C45.8062 35.7795 46.2241 35.9573 46.7539 36.0778C47.2838 36.1982 47.8535 36.2584 48.463 36.2584Z" fill="#E18EBB"/>
<path d="M48.4629 30.667C48.9979 30.667 49.493 30.7153 49.9483 30.8119C50.4035 30.9085 50.7636 31.0394 51.0285 31.2046C51.2934 31.3698 51.4259 31.5491 51.4259 31.7423V32.2799C51.4259 32.4731 51.2934 32.6524 51.0285 32.8176C50.7636 32.9828 50.4035 33.1137 49.9483 33.2103C49.493 33.3069 48.9979 33.3552 48.4629 33.3552C47.928 33.3552 47.4329 33.3069 46.9776 33.2103C46.5224 33.1137 46.1623 32.9828 45.8974 32.8176C45.6325 32.6524 45.5 32.4731 45.5 32.2799V31.7423C45.5 31.5491 45.6325 31.3698 45.8974 31.2046C46.1623 31.0394 46.5224 30.9085 46.9776 30.8119C47.4329 30.7153 47.928 30.667 48.4629 30.667Z" fill="#E18EBB"/>
<rect x="36.3334" y="29.8335" width="6.25" height="5" rx="1" fill="#6E95CD"/>
<path d="M39.6146 31.0835L40.8646 32.3335M40.8646 32.3335L39.6146 33.5835M40.8646 32.3335H37.7396" stroke="white" stroke-width="0.8"/>
<rect x="58" y="22.3335" width="43.3333" height="36.6667" rx="2" fill="#5E6DBB"/>
<rect x="24.6667" y="42.3335" width="30" height="16.6667" rx="2" fill="#FBE39D"/>
<path opacity="0.3" d="M33 54.4168L38.8333 51.0835L44.6667 54.4168L38.8333 57.7502L33 54.4168Z" fill="#9DB6A1"/>
<path opacity="0.3" d="M33 51.5003L38.8333 48.167L44.6667 51.5003L38.8333 54.8337L33 51.5003Z" fill="#9DB6A1"/>
<path d="M33 48.1668L38.8333 44.8335L44.6667 48.1668L38.8333 51.5002L33 48.1668Z" fill="#9DB6A1"/>
<path d="M84.7689 47.6892H76.0913C75.9315 47.6855 75.7749 47.6436 75.6346 47.5671C75.4943 47.4905 75.3743 47.3815 75.2847 47.2492C74.4536 46.0514 73.9891 44.6826 73.818 43.0448C73.5313 43.2129 73.2682 43.4184 73.0358 43.6559C72.8121 43.8757 72.5248 44.0192 72.2147 44.0663C71.9047 44.1133 71.5877 44.0614 71.3088 43.9179C71.03 43.7744 70.8035 43.5467 70.6615 43.2671C70.5196 42.9875 70.4694 42.6702 70.5181 42.3604C70.7137 41.1871 71.0803 40.1116 71.5692 39.2072C72.0581 38.3027 72.6936 37.6672 73.3536 37.3005C73.4234 37.2605 73.4822 37.2039 73.5248 37.1356C73.5675 37.0674 73.5926 36.9897 73.598 36.9094C73.7936 34.7584 74.5269 32.754 75.8224 30.9207C76.8979 29.4541 78.1201 28.4274 78.9512 27.8163C79.3759 27.5027 79.8899 27.3335 80.4179 27.3335C80.9458 27.3335 81.4598 27.5027 81.8845 27.8163C82.7156 28.4274 83.9378 29.4785 85.0133 30.9696C86.3088 32.7784 87.0666 34.7828 87.2377 36.9583C87.2431 37.0386 87.2682 37.1163 87.3109 37.1845C87.3535 37.2527 87.4123 37.3094 87.4821 37.3494C88.1421 37.7161 88.7776 38.3761 89.2665 39.2561C89.7554 40.136 90.1465 41.236 90.3176 42.4093C90.3663 42.7191 90.3161 43.0363 90.1742 43.316C90.0322 43.5956 89.8057 43.8233 89.5269 43.9668C89.248 44.1103 88.931 44.1622 88.621 44.1152C88.311 44.0681 88.0236 43.9245 87.7999 43.7048C87.5675 43.4673 87.3044 43.2618 87.0177 43.0937C86.871 44.7559 86.3821 46.1003 85.5511 47.2981C85.4587 47.4181 85.3403 47.5157 85.2049 47.5834C85.0694 47.6512 84.9203 47.6873 84.7689 47.6892Z" fill="#FF78B0"/>
<path d="M80.3651 52.3335C80.0993 52.3335 79.8444 52.2279 79.6565 52.0399C79.4685 51.852 79.3629 51.5971 79.3629 51.3313V49.1802C79.3404 49.0372 79.3491 48.8909 79.3885 48.7516C79.4279 48.6122 79.497 48.4831 79.5911 48.373C79.6851 48.2629 79.802 48.1746 79.9335 48.114C80.065 48.0534 80.2081 48.022 80.3529 48.022C80.4977 48.022 80.6408 48.0534 80.7723 48.114C80.9038 48.1746 81.0206 48.2629 81.1147 48.373C81.2088 48.4831 81.2779 48.6122 81.3173 48.7516C81.3567 48.8909 81.3654 49.0372 81.3429 49.1802V51.3313C81.3429 51.5929 81.2407 51.8442 81.058 52.0314C80.8753 52.2187 80.6267 52.3271 80.3651 52.3335ZM76.6497 51.1602C76.518 51.1602 76.3877 51.1342 76.2661 51.0839C76.1445 51.0335 76.0341 50.9597 75.941 50.8666C75.8479 50.7736 75.7741 50.6631 75.7237 50.5415C75.6734 50.4199 75.6475 50.2896 75.6475 50.158V49.1802C75.6846 48.9444 75.8048 48.7295 75.9863 48.5744C76.1678 48.4193 76.3987 48.334 76.6374 48.334C76.8762 48.334 77.1071 48.4193 77.2886 48.5744C77.4701 48.7295 77.5902 48.9444 77.6274 49.1802V50.1824C77.6212 50.4398 77.5162 50.6849 77.3342 50.8669C77.1521 51.0489 76.907 51.154 76.6497 51.1602ZM84.0561 51.1602C83.7903 51.1602 83.5354 51.0546 83.3475 50.8666C83.1595 50.6787 83.0539 50.4238 83.0539 50.158V49.1802C83.0314 49.0372 83.0401 48.8909 83.0795 48.7516C83.1189 48.6122 83.188 48.4831 83.2821 48.373C83.3762 48.2629 83.493 48.1746 83.6245 48.114C83.756 48.0534 83.8991 48.022 84.0439 48.022C84.1887 48.022 84.3318 48.0534 84.4633 48.114C84.5948 48.1746 84.7117 48.2629 84.8057 48.373C84.8998 48.4831 84.9689 48.6122 85.0083 48.7516C85.0477 48.8909 85.0564 49.0372 85.0339 49.1802V50.1824C85.0277 50.4398 84.9227 50.6849 84.7406 50.8669C84.5586 51.0489 84.3135 51.154 84.0561 51.1602Z" fill="#FF78B0"/>
<circle cx="80.4399" cy="35.2667" r="2.56312" fill="white"/>
<rect x="76.6265" y="43.3311" width="7.50181" height="1.50036" rx="0.750181" fill="white"/>
<defs>
<filter id="filter0_d_73_984" x="0.333374" y="22.5" width="42" height="52" filterUnits="userSpaceOnUse" color-interpolation-filters="sRGB">
<feFlood flood-opacity="0" result="BackgroundImageFix"/>
<feColorMatrix in="SourceAlpha" type="matrix" values="0 0 0 0 0 0 0 0 0 0 0 0 0 0 0 0 0 0 127 0" result="hardAlpha"/>
<feOffset dy="2"/>
<feGaussianBlur stdDeviation="3"/>
<feComposite in2="hardAlpha" operator="out"/>
<feColorMatrix type="matrix" values="0 0 0 0 0.317098 0 0 0 0 0.4 0 0 0 0 0.346114 0 0 0 0.1 0"/>
<feBlend mode="normal" in2="BackgroundImageFix" result="effect1_dropShadow_73_984"/>
<feBlend mode="normal" in="SourceGraphic" in2="effect1_dropShadow_73_984" result="shape"/>
</filter>
</defs>
</svg>
